{"glyphs":{"0":{"ha":1316,"x_min":146,"x_max":1170,"o":"m 292 1316 l 439 1316 l 439 1170 l 292 1170 l 292 1316 m 439 1316 l 585 1316 l 585 1170 l 439 1170 l 439 1316 m 585 1316 l 731 1316 l 731 1170 l 585 1170 l 585 1316 m 731 1316 l 877 1316 l 877 1170 l 731 1170 l 731 1316 m 877 1316 l 1023 1316 l 1023 1170 l 877 1170 l 877 1316 m 146 1170 l 292 1170 l 292 1023 l 146 1023 l 146 1170 m 292 1170 l 439 1170 l 439 1023 l 292 1023 l 292 1170 m 877 1170 l 1023 1170 l 1023 1023 l 877 1023 l 877 1170 m 1023 1170 l 1170 1170 l 1170 1023 l 1023 1023 l 1023 1170 m 146 1023 l 292 1023 l 292 877 l 146 877 l 146 1023 m 292 1023 l 439 1023 l 439 877 l 292 877 l 292 1023 m 877 1023 l 1023 1023 l 1023 877 l 877 877 l 877 1023 m 1023 1023 l 1170 1023 l 1170 877 l 1023 877 l 1023 1023 m 146 877 l 292 877 l 292 731 l 146 731 l 146 877 m 292 877 l 439 877 l 439 731 l 292 731 l 292 877 m 877 877 l 1023 877 l 1023 731 l 877 731 l 877 877 m 1023 877 l 1170 877 l 1170 731 l 1023 731 l 1023 877 m 146 731 l 292 731 l 292 585 l 146 585 l 146 731 m 292 731 l 439 731 l 439 585 l 292 585 l 292 731 m 877 731 l 1023 731 l 1023 585 l 877 585 l 877 731 m 1023 731 l 1170 731 l 1170 585 l 1023 585 l 1023 731 m 146 585 l 292 585 l 292 439 l 146 439 l 146 585 m 292 585 l 439 585 l 439 439 l 292 439 l 292 585 m 877 585 l 1023 585 l 1023 439 l 877 439 l 877 585 m 1023 585 l 1170 585 l 1170 439 l 1023 439 l 1023 585 m 292 439 l 439 439 l 439 292 l 292 292 l 292 439 m 439 439 l 585 439 l 585 292 l 439 292 l 439 439 m 585 439 l 731 439 l 731 292 l 585 292 l 585 439 m 731 439 l 877 439 l 877 292 l 731 292 l 731 439 m 877 439 l 1023 439 l 1023 292 l 877 292 l 877 439 z "},"1":{"ha":1170,"x_min":439,"x_max":1023,"o":"m 585 1316 l 731 1316 l 731 1170 l 585 1170 l 585 1316 m 731 1316 l 877 1316 l 877 1170 l 731 1170 l 731 1316 m 439 1170 l 585 1170 l 585 1023 l 439 1023 l 439 1170 m 585 1170 l 731 1170 l 731 1023 l 585 1023 l 585 1170 m 731 1170 l 877 1170 l 877 1023 l 731 1023 l 731 1170 m 585 1023 l 731 1023 l 731 877 l 585 877 l 585 1023 m 731 1023 l 877 1023 l 877 877 l 731 877 l 731 1023 m 585 877 l 731 877 l 731 731 l 585 731 l 585 877 m 731 877 l 877 877 l 877 731 l 731 731 l 731 877 m 585 731 l 731 731 l 731 585 l 585 585 l 585 731 m 731 731 l 877 731 l 877 585 l 731 585 l 731 731 m 585 585 l 731 585 l 731 439 l 585 439 l 585 585 m 731 585 l 877 585 l 877 439 l 731 439 l 731 585 m 439 439 l 585 439 l 585 292 l 439 292 l 439 439 m 585 439 l 731 439 l 731 292 l 585 292 l 585 439 m 731 439 l 877 439 l 877 292 l 731 292 l 731 439 m 877 439 l 1023 439 l 1023 292 l 877 292 l 877 439 z "},"2":{"ha":1316,"x_min":146,"x_max":1170,"o":"m 292 1316 l 439 1316 l 439 1170 l 292 1170 l 292 1316 m 439 1316 l 585 1316 l 585 1170 l 439 1170 l 439 1316 m 585 1316 l 731 1316 l 731 1170 l 585 1170 l 585 1316 m 731 1316 l 877 1316 l 877 1170 l 731 1170 l 731 1316 m 877 1316 l 1023 1316 l 1023 1170 l 877 1170 l 877 1316 m 146 1170 l 292 1170 l 292 1023 l 146 1023 l 146 1170 m 292 1170 l 439 1170 l 439 1023 l 292 1023 l 292 1170 m 877 1170 l 1023 1170 l 1023 1023 l 877 1023 l 877 1170 m 1023 1170 l 1170 1170 l 1170 1023 l 1023 1023 l 1023 1170 m 146 1023 l 292 1023 l 292 877 l 146 877 l 146 1023 m 292 1023 l 439 1023 l 439 877 l 292 877 l 292 1023 m 877 1023 l 1023 1023 l 1023 877 l 877 877 l 877 1023 m 1023 1023 l 1170 1023 l 1170 877 l 1023 877 l 1023 1023 m 585 877 l 731 877 l 731 731 l 585 731 l 585 877 m 731 877 l 877 877 l 877 731 l 731 731 l 731 877 m 877 877 l 1023 877 l 1023 731 l 877 731 l 877 877 m 439 731 l 585 731 l 585 585 l 439 585 l 439 731 m 585 731 l 731 731 l 731 585 l 585 585 l 585 731 m 292 585 l 439 585 l 439 439 l 292 439 l 292 585 m 439 585 l 585 585 l 585 439 l 439 439 l 439 585 m 146 439 l 292 439 l 292 292 l 146 292 l 146 439 m 292 439 l 439 439 l 439 292 l 292 292 l 292 439 m 439 439 l 585 439 l 585 292 l 439 292 l 439 439 m 585 439 l 731 439 l 731 292 l 585 292 l 585 439 m 731 439 l 877 439 l 877 292 l 731 292 l 731 439 m 877 439 l 1023 439 l 1023 292 l 877 292 l 877 439 m 1023 439 l 1170 439 l 1170 292 l 1023 292 l 1023 439 z "},"3":{"ha":1316,"x_min":146,"x_max":1170,"o":"m 292 1316 l 439 1316 l 439 1170 l 292 1170 l 292 1316 m 439 1316 l 585 1316 l 585 1170 l 439 1170 l 439 1316 m 585 1316 l 731 1316 l 731 1170 l 585 1170 l 585 1316 m 731 1316 l 877 1316 l 877 1170 l 731 1170 l 731 1316 m 877 1316 l 1023 1316 l 1023 1170 l 877 1170 l 877 1316 m 146 1170 l 292 1170 l 292 1023 l 146 1023 l 146 1170 m 292 1170 l 439 1170 l 439 1023 l 292 1023 l 292 1170 m 877 1170 l 1023 1170 l 1023 1023 l 877 1023 l 877 1170 m 1023 1170 l 1170 1170 l 1170 1023 l 1023 1023 l 1023 1170 m 146 1023 l 292 1023 l 292 877 l 146 877 l 146 1023 m 292 1023 l 439 1023 l 439 877 l 292 877 l 292 1023 m 877 1023 l 1023 1023 l 1023 877 l 877 877 l 877 1023 m 1023 1023 l 1170 1023 l 1170 877 l 1023 877 l 1023 1023 m 585 877 l 731 877 l 731 731 l 585 731 l 585 877 m 731 877 l 877 877 l 877 731 l 731 731 l 731 877 m 877 877 l 1023 877 l 1023 731 l 877 731 l 877 877 m 146 731 l 292 731 l 292 585 l 146 585 l 146 731 m 292 731 l 439 731 l 439 585 l 292 585 l 292 731 m 877 731 l 1023 731 l 1023 585 l 877 585 l 877 731 m 1023 731 l 1170 731 l 1170 585 l 1023 585 l 1023 731 m 146 585 l 292 585 l 292 439 l 146 439 l 146 585 m 292 585 l 439 585 l 439 439 l 292 439 l 292 585 m 877 585 l 1023 585 l 1023 439 l 877 439 l 877 585 m 1023 585 l 1170 585 l 1170 439 l 1023 439 l 1023 585 m 292 439 l 439 439 l 439 292 l 292 292 l 292 439 m 439 439 l 585 439 l 585 292 l 439 292 l 439 439 m 585 439 l 731 439 l 731 292 l 585 292 l 585 439 m 731 439 l 877 439 l 877 292 l 731 292 l 731 439 m 877 439 l 1023 439 l 1023 292 l 877 292 l 877 439 z "},"4":{"ha":1316,"x_min":146,"x_max":1170,"o":"m 585 1316 l 731 1316 l 731 1170 l 585 1170 l 585 1316 m 731 1316 l 877 1316 l 877 1170 l 731 1170 l 731 1316 m 877 1316 l 1023 1316 l 1023 1170 l 877 1170 l 877 1316 m 439 1170 l 585 1170 l 585 1023 l 439 1023 l 439 1170 m 731 1170 l 877 1170 l 877 1023 l 731 1023 l 731 1170 m 877 1170 l 1023 1170 l 1023 1023 l 877 1023 l 877 1170 m 292 1023 l 439 1023 l 439 877 l 292 877 l 292 1023 m 731 1023 l 877 1023 l 877 877 l 731 877 l 731 1023 m 877 1023 l 1023 1023 l 1023 877 l 877 877 l 877 1023 m 146 877 l 292 877 l 292 731 l 146 731 l 146 877 m 292 877 l 439 877 l 439 731 l 292 731 l 292 877 m 731 877 l 877 877 l 877 731 l 731 731 l 731 877 m 877 877 l 1023 877 l 1023 731 l 877 731 l 877 877 m 146 731 l 292 731 l 292 585 l 146 585 l 146 731 m 292 731 l 439 731 l 439 585 l 292 585 l 292 731 m 439 731 l 585 731 l 585 585 l 439 585 l 439 731 m 585 731 l 731 731 l 731 585 l 585 585 l 585 731 m 731 731 l 877 731 l 877 585 l 731 585 l 731 731 m 877 731 l 1023 731 l 1023 585 l 877 585 l 877 731 m 1023 731 l 1170 731 l 1170 585 l 1023 585 l 1023 731 m 731 585 l 877 585 l 877 439 l 731 439 l 731 585 m 877 585 l 1023 585 l 1023 439 l 877 439 l 877 585 m 731 439 l 877 439 l 877 292 l 731 292 l 731 439 m 877 439 l 1023 439 l 1023 292 l 877 292 l 877 439 z "},"5":{"ha":1316,"x_min":146,"x_max":1170,"o":"m 146 1316 l 292 1316 l 292 1170 l 146 1170 l 146 1316 m 292 1316 l 439 1316 l 439 1170 l 292 1170 l 292 1316 m 439 1316 l 585 1316 l 585 1170 l 439 1170 l 439 1316 m 585 1316 l 731 1316 l 731 1170 l 585 1170 l 585 1316 m 731 1316 l 877 1316 l 877 1170 l 731 1170 l 731 1316 m 877 1316 l 1023 1316 l 1023 1170 l 877 1170 l 877 1316 m 1023 1316 l 1170 1316 l 1170 1170 l 1023 1170 l 1023 1316 m 146 1170 l 292 1170 l 292 1023 l 146 1023 l 146 1170 m 292 1170 l 439 1170 l 439 1023 l 292 1023 l 292 1170 m 146 1023 l 292 1023 l 292 877 l 146 877 l 146 1023 m 292 1023 l 439 1023 l 439 877 l 292 877 l 292 1023 m 439 1023 l 585 1023 l 585 877 l 439 877 l 439 1023 m 585 1023 l 731 1023 l 731 877 l 585 877 l 585 1023 m 731 1023 l 877 1023 l 877 877 l 731 877 l 731 1023 m 877 1023 l 1023 1023 l 1023 877 l 877 877 l 877 1023 m 146 877 l 292 877 l 292 731 l 146 731 l 146 877 m 292 877 l 439 877 l 439 731 l 292 731 l 292 877 m 877 877 l 1023 877 l 1023 731 l 877 731 l 877 877 m 1023 877 l 1170 877 l 1170 731 l 1023 731 l 1023 877 m 877 731 l 1023 731 l 1023 585 l 877 585 l 877 731 m 1023 731 l 1170 731 l 1170 585 l 1023 585 l 1023 731 m 146 585 l 292 585 l 292 439 l 146 439 l 146 585 m 292 585 l 439 585 l 439 439 l 292 439 l 292 585 m 877 585 l 1023 585 l 1023 439 l 877 439 l 877 585 m 1023 585 l 1170 585 l 1170 439 l 1023 439 l 1023 585 m 292 439 l 439 439 l 439 292 l 292 292 l 292 439 m 439 439 l 585 439 l 585 292 l 439 292 l 439 439 m 585 439 l 731 439 l 731 292 l 585 292 l 585 439 m 731 439 l 877 439 l 877 292 l 731 292 l 731 439 m 877 439 l 1023 439 l 1023 292 l 877 292 l 877 439 z "},"6":{"ha":1316,"x_min":146,"x_max":1170,"o":"m 292 1316 l 439 1316 l 439 1170 l 292 1170 l 292 1316 m 439 1316 l 585 1316 l 585 1170 l 439 1170 l 439 1316 m 585 1316 l 731 1316 l 731 1170 l 585 1170 l 585 1316 m 731 1316 l 877 1316 l 877 1170 l 731 1170 l 731 1316 m 877 1316 l 1023 1316 l 1023 1170 l 877 1170 l 877 1316 m 146 1170 l 292 1170 l 292 1023 l 146 1023 l 146 1170 m 292 1170 l 439 1170 l 439 1023 l 292 1023 l 292 1170 m 877 1170 l 1023 1170 l 1023 1023 l 877 1023 l 877 1170 m 1023 1170 l 1170 1170 l 1170 1023 l 1023 1023 l 1023 1170 m 146 1023 l 292 1023 l 292 877 l 146 877 l 146 1023 m 292 1023 l 439 1023 l 439 877 l 292 877 l 292 1023 m 146 877 l 292 877 l 292 731 l 146 731 l 146 877 m 292 877 l 439 877 l 439 731 l 292 731 l 292 877 m 439 877 l 585 877 l 585 731 l 439 731 l 439 877 m 585 877 l 731 877 l 731 731 l 585 731 l 585 877 m 731 877 l 877 877 l 877 731 l 731 731 l 731 877 m 877 877 l 1023 877 l 1023 731 l 877 731 l 877 877 m 146 731 l 292 731 l 292 585 l 146 585 l 146 731 m 292 731 l 439 731 l 439 585 l 292 585 l 292 731 m 877 731 l 1023 731 l 1023 585 l 877 585 l 877 731 m 1023 731 l 1170 731 l 1170 585 l 1023 585 l 1023 731 m 146 585 l 292 585 l 292 439 l 146 439 l 146 585 m 292 585 l 439 585 l 439 439 l 292 439 l 292 585 m 877 585 l 1023 585 l 1023 439 l 877 439 l 877 585 m 1023 585 l 1170 585 l 1170 439 l 1023 439 l 1023 585 m 292 439 l 439 439 l 439 292 l 292 292 l 292 439 m 439 439 l 585 439 l 585 292 l 439 292 l 439 439 m 585 439 l 731 439 l 731 292 l 585 292 l 585 439 m 731 439 l 877 439 l 877 292 l 731 292 l 731 439 m 877 439 l 1023 439 l 1023 292 l 877 292 l 877 439 z "},"7":{"ha":1316,"x_min":146,"x_max":1170,"o":"m 146 1316 l 292 1316 l 292 1170 l 146 1170 l 146 1316 m 292 1316 l 439 1316 l 439 1170 l 292 1170 l 292 1316 m 439 1316 l 585 1316 l 585 1170 l 439 1170 l 439 1316 m 585 1316 l 731 1316 l 731 1170 l 585 1170 l 585 1316 m 731 1316 l 877 1316 l 877 1170 l 731 1170 l 731 1316 m 877 1316 l 1023 1316 l 1023 1170 l 877 1170 l 877 1316 m 1023 1316 l 1170 1316 l 1170 1170 l 1023 1170 l 1023 1316 m 146 1170 l 292 1170 l 292 1023 l 146 1023 l 146 1170 m 292 1170 l 439 1170 l 439 1023 l 292 1023 l 292 1170 m 877 1170 l 1023 1170 l 1023 1023 l 877 1023 l 877 1170 m 1023 1170 l 1170 1170 l 1170 1023 l 1023 1023 l 1023 1170 m 731 1023 l 877 1023 l 877 877 l 731 877 l 731 1023 m 585 877 l 731 877 l 731 731 l 585 731 l 585 877 m 439 731 l 585 731 l 585 585 l 439 585 l 439 731 m 585 731 l 731 731 l 731 585 l 585 585 l 585 731 m 439 585 l 585 585 l 585 439 l 439 439 l 439 585 m 585 585 l 731 585 l 731 439 l 585 439 l 585 585 m 439 439 l 585 439 l 585 292 l 439 292 l 439 439 m 585 439 l 731 439 l 731 292 l 585 292 l 585 439 z "},"8":{"ha":1316,"x_min":146,"x_max":1170,"o":"m 292 1316 l 439 1316 l 439 1170 l 292 1170 l 292 1316 m 439 1316 l 585 1316 l 585 1170 l 439 1170 l 439 1316 m 585 1316 l 731 1316 l 731 1170 l 585 1170 l 585 1316 m 731 1316 l 877 1316 l 877 1170 l 731 1170 l 731 1316 m 877 1316 l 1023 1316 l 1023 1170 l 877 1170 l 877 1316 m 146 1170 l 292 1170 l 292 1023 l 146 1023 l 146 1170 m 292 1170 l 439 1170 l 439 1023 l 292 1023 l 292 1170 m 877 1170 l 1023 1170 l 1023 1023 l 877 1023 l 877 1170 m 1023 1170 l 1170 1170 l 1170 1023 l 1023 1023 l 1023 1170 m 146 1023 l 292 1023 l 292 877 l 146 877 l 146 1023 m 292 1023 l 439 1023 l 439 877 l 292 877 l 292 1023 m 877 1023 l 1023 1023 l 1023 877 l 877 877 l 877 1023 m 1023 1023 l 1170 1023 l 1170 877 l 1023 877 l 1023 1023 m 292 877 l 439 877 l 439 731 l 292 731 l 292 877 m 439 877 l 585 877 l 585 731 l 439 731 l 439 877 m 585 877 l 731 877 l 731 731 l 585 731 l 585 877 m 731 877 l 877 877 l 877 731 l 731 731 l 731 877 m 877 877 l 1023 877 l 1023 731 l 877 731 l 877 877 m 146 731 l 292 731 l 292 585 l 146 585 l 146 731 m 292 731 l 439 731 l 439 585 l 292 585 l 292 731 m 877 731 l 1023 731 l 1023 585 l 877 585 l 877 731 m 1023 731 l 1170 731 l 1170 585 l 1023 585 l 1023 731 m 146 585 l 292 585 l 292 439 l 146 439 l 146 585 m 292 585 l 439 585 l 439 439 l 292 439 l 292 585 m 877 585 l 1023 585 l 1023 439 l 877 439 l 877 585 m 1023 585 l 1170 585 l 1170 439 l 1023 439 l 1023 585 m 292 439 l 439 439 l 439 292 l 292 292 l 292 439 m 439 439 l 585 439 l 585 292 l 439 292 l 439 439 m 585 439 l 731 439 l 731 292 l 585 292 l 585 439 m 731 439 l 877 439 l 877 292 l 731 292 l 731 439 m 877 439 l 1023 439 l 1023 292 l 877 292 l 877 439 z "},"9":{"ha":1316,"x_min":146,"x_max":1170,"o":"m 292 1316 l 439 1316 l 439 1170 l 292 1170 l 292 1316 m 439 1316 l 585 1316 l 585 1170 l 439 1170 l 439 1316 m 585 1316 l 731 1316 l 731 1170 l 585 1170 l 585 1316 m 731 1316 l 877 1316 l 877 1170 l 731 1170 l 731 1316 m 877 1316 l 1023 1316 l 1023 1170 l 877 1170 l 877 1316 m 146 1170 l 292 1170 l 292 1023 l 146 1023 l 146 1170 m 292 1170 l 439 1170 l 439 1023 l 292 1023 l 292 1170 m 877 1170 l 1023 1170 l 1023 1023 l 877 1023 l 877 1170 m 1023 1170 l 1170 1170 l 1170 1023 l 1023 1023 l 1023 1170 m 146 1023 l 292 1023 l 292 877 l 146 877 l 146 1023 m 292 1023 l 439 1023 l 439 877 l 292 877 l 292 1023 m 877 1023 l 1023 1023 l 1023 877 l 877 877 l 877 1023 m 1023 1023 l 1170 1023 l 1170 877 l 1023 877 l 1023 1023 m 292 877 l 439 877 l 439 731 l 292 731 l 292 877 m 439 877 l 585 877 l 585 731 l 439 731 l 439 877 m 585 877 l 731 877 l 731 731 l 585 731 l 585 877 m 731 877 l 877 877 l 877 731 l 731 731 l 731 877 m 877 877 l 1023 877 l 1023 731 l 877 731 l 877 877 m 1023 877 l 1170 877 l 1170 731 l 1023 731 l 1023 877 m 877 731 l 1023 731 l 1023 585 l 877 585 l 877 731 m 1023 731 l 1170 731 l 1170 585 l 1023 585 l 1023 731 m 146 585 l 292 585 l 292 439 l 146 439 l 146 585 m 292 585 l 439 585 l 439 439 l 292 439 l 292 585 m 877 585 l 1023 585 l 1023 439 l 877 439 l 877 585 m 1023 585 l 1170 585 l 1170 439 l 1023 439 l 1023 585 m 292 439 l 439 439 l 439 292 l 292 292 l 292 439 m 439 439 l 585 439 l 585 292 l 439 292 l 439 439 m 585 439 l 731 439 l 731 292 l 585 292 l 585 439 m 731 439 l 877 439 l 877 292 l 731 292 l 731 439 m 877 439 l 1023 439 l 1023 292 l 877 292 l 877 439 z "},"\r":{"ha":146,"x_min":0,"x_max":0,"o":""}," ":{"ha":1023,"x_min":0,"x_max":0,"o":""},"!":{"ha":1023,"x_min":292,"x_max":877,"o":"m 585 1170 l 731 1170 l 731 1023 l 585 1023 l 585 1170 m 731 1170 l 877 1170 l 877 1023 l 731 1023 l 731 1170 m 439 1023 l 585 1023 l 585 877 l 439 877 l 439 1023 m 585 1023 l 731 1023 l 731 877 l 585 877 l 585 1023 m 731 1023 l 877 1023 l 877 877 l 731 877 l 731 1023 m 439 877 l 585 877 l 585 731 l 439 731 l 439 877 m 585 877 l 731 877 l 731 731 l 585 731 l 585 877 m 439 731 l 585 731 l 585 585 l 439 585 l 439 731 m 292 439 l 439 439 l 439 292 l 292 292 l 292 439 z "},"\"":{"ha":1023,"x_min":146,"x_max":877,"o":"m 146 1316 l 292 1316 l 292 1170 l 146 1170 l 146 1316 m 292 1316 l 439 1316 l 439 1170 l 292 1170 l 292 1316 m 585 1316 l 731 1316 l 731 1170 l 585 1170 l 585 1316 m 731 1316 l 877 1316 l 877 1170 l 731 1170 l 731 1316 m 292 1170 l 439 1170 l 439 1023 l 292 1023 l 292 1170 m 731 1170 l 877 1170 l 877 1023 l 731 1023 l 731 1170 m 146 1023 l 292 1023 l 292 877 l 146 877 l 146 1023 m 585 1023 l 731 1023 l 731 877 l 585 877 l 585 1023 z "},"#":{"ha":1170,"x_min":0,"x_max":1023,"o":"m 585 1316 l 731 1316 l 731 1170 l 585 1170 l 585 1316 m 292 1170 l 439 1170 l 439 1023 l 292 1023 l 292 1170 m 585 1170 l 731 1170 l 731 1023 l 585 1023 l 585 1170 m 731 1170 l 877 1170 l 877 1023 l 731 1023 l 731 1170 m 877 1170 l 1023 1170 l 1023 1023 l 877 1023 l 877 1170 m 0 1023 l 146 1023 l 146 877 l 0 877 l 0 1023 m 146 1023 l 292 1023 l 292 877 l 146 877 l 146 1023 m 292 1023 l 439 1023 l 439 877 l 292 877 l 292 1023 m 439 1023 l 585 1023 l 585 877 l 439 877 l 439 1023 m 585 1023 l 731 1023 l 731 877 l 585 877 l 585 1023 m 292 877 l 439 877 l 439 731 l 292 731 l 292 877 m 585 877 l 731 877 l 731 731 l 585 731 l 585 877 m 292 731 l 439 731 l 439 585 l 292 585 l 292 731 m 439 731 l 585 731 l 585 585 l 439 585 l 439 731 m 585 731 l 731 731 l 731 585 l 585 585 l 585 731 m 731 731 l 877 731 l 877 585 l 731 585 l 731 731 m 877 731 l 1023 731 l 1023 585 l 877 585 l 877 731 m 0 585 l 146 585 l 146 439 l 0 439 l 0 585 m 146 585 l 292 585 l 292 439 l 146 439 l 146 585 m 292 585 l 439 585 l 439 439 l 292 439 l 292 585 m 585 585 l 731 585 l 731 439 l 585 439 l 585 585 m 292 439 l 439 439 l 439 292 l 292 292 l 292 439 z "},"$":{"ha":1170,"x_min":0,"x_max":1023,"o":"m 439 1316 l 585 1316 l 585 1170 l 439 1170 l 439 1316 m 146 1170 l 292 1170 l 292 1023 l 146 1023 l 146 1170 m 292 1170 l 439 1170 l 439 1023 l 292 1023 l 292 1170 m 439 1170 l 585 1170 l 585 1023 l 439 1023 l 439 1170 m 585 1170 l 731 1170 l 731 1023 l 585 1023 l 585 1170 m 731 1170 l 877 1170 l 877 1023 l 731 1023 l 731 1170 m 0 1023 l 146 1023 l 146 877 l 0 877 l 0 1023 m 439 1023 l 585 1023 l 585 877 l 439 877 l 439 1023 m 0 877 l 146 877 l 146 731 l 0 731 l 0 877 m 146 877 l 292 877 l 292 731 l 146 731 l 146 877 m 292 877 l 439 877 l 439 731 l 292 731 l 292 877 m 439 877 l 585 877 l 585 731 l 439 731 l 439 877 m 585 877 l 731 877 l 731 731 l 585 731 l 585 877 m 731 877 l 877 877 l 877 731 l 731 731 l 731 877 m 877 877 l 1023 877 l 1023 731 l 877 731 l 877 877 m 439 731 l 585 731 l 585 585 l 439 585 l 439 731 m 877 731 l 1023 731 l 1023 585 l 877 585 l 877 731 m 0 585 l 146 585 l 146 439 l 0 439 l 0 585 m 146 585 l 292 585 l 292 439 l 146 439 l 146 585 m 292 585 l 439 585 l 439 439 l 292 439 l 292 585 m 439 585 l 585 585 l 585 439 l 439 439 l 439 585 m 585 585 l 731 585 l 731 439 l 585 439 l 585 585 m 731 585 l 877 585 l 877 439 l 731 439 l 731 585 m 439 439 l 585 439 l 585 292 l 439 292 l 439 439 z "},"%":{"ha":1170,"x_min":0,"x_max":1023,"o":"m 146 1316 l 292 1316 l 292 1170 l 146 1170 l 146 1316 m 877 1316 l 1023 1316 l 1023 1170 l 877 1170 l 877 1316 m 0 1170 l 146 1170 l 146 1023 l 0 1023 l 0 1170 m 292 1170 l 439 1170 l 439 1023 l 292 1023 l 292 1170 m 731 1170 l 877 1170 l 877 1023 l 731 1023 l 731 1170 m 0 1023 l 146 1023 l 146 877 l 0 877 l 0 1023 m 292 1023 l 439 1023 l 439 877 l 292 877 l 292 1023 m 585 1023 l 731 1023 l 731 877 l 585 877 l 585 1023 m 146 877 l 292 877 l 292 731 l 146 731 l 146 877 m 439 877 l 585 877 l 585 731 l 439 731 l 439 877 m 731 877 l 877 877 l 877 731 l 731 731 l 731 877 m 292 731 l 439 731 l 439 585 l 292 585 l 292 731 m 585 731 l 731 731 l 731 585 l 585 585 l 585 731 m 877 731 l 1023 731 l 1023 585 l 877 585 l 877 731 m 146 585 l 292 585 l 292 439 l 146 439 l 146 585 m 585 585 l 731 585 l 731 439 l 585 439 l 585 585 m 877 585 l 1023 585 l 1023 439 l 877 439 l 877 585 m 0 439 l 146 439 l 146 292 l 0 292 l 0 439 m 731 439 l 877 439 l 877 292 l 731 292 l 731 439 z "},"&":{"ha":1170,"x_min":146,"x_max":1023,"o":"m 439 1316 l 585 1316 l 585 1170 l 439 1170 l 439 1316 m 292 1170 l 439 1170 l 439 1023 l 292 1023 l 292 1170 m 585 1170 l 731 1170 l 731 1023 l 585 1023 l 585 1170 m 292 1023 l 439 1023 l 439 877 l 292 877 l 292 1023 m 585 1023 l 731 1023 l 731 877 l 585 877 l 585 1023 m 439 877 l 585 877 l 585 731 l 439 731 l 439 877 m 292 731 l 439 731 l 439 585 l 292 585 l 292 731 m 585 731 l 731 731 l 731 585 l 585 585 l 585 731 m 877 731 l 1023 731 l 1023 585 l 877 585 l 877 731 m 146 585 l 292 585 l 292 439 l 146 439 l 146 585 m 731 585 l 877 585 l 877 439 l 731 439 l 731 585 m 292 439 l 439 439 l 439 292 l 292 292 l 292 439 m 439 439 l 585 439 l 585 292 l 439 292 l 439 439 m 585 439 l 731 439 l 731 292 l 585 292 l 585 439 m 877 439 l 1023 439 l 1023 292 l 877 292 l 877 439 z "},"'":{"ha":731,"x_min":292,"x_max":585,"o":"m 292 1316 l 439 1316 l 439 1170 l 292 1170 l 292 1316 m 439 1316 l 585 1316 l 585 1170 l 439 1170 l 439 1316 m 439 1170 l 585 1170 l 585 1023 l 439 1023 l 439 1170 m 292 1023 l 439 1023 l 439 877 l 292 877 l 292 1023 z "},"(":{"ha":1023,"x_min":292,"x_max":877,"o":"m 585 1316 l 731 1316 l 731 1170 l 585 1170 l 585 1316 m 731 1316 l 877 1316 l 877 1170 l 731 1170 l 731 1316 m 439 1170 l 585 1170 l 585 1023 l 439 1023 l 439 1170 m 292 1023 l 439 1023 l 439 877 l 292 877 l 292 1023 m 292 877 l 439 877 l 439 731 l 292 731 l 292 877 m 292 731 l 439 731 l 439 585 l 292 585 l 292 731 m 439 585 l 585 585 l 585 439 l 439 439 l 439 585 m 585 439 l 731 439 l 731 292 l 585 292 l 585 439 m 731 439 l 877 439 l 877 292 l 731 292 l 731 439 z "},")":{"ha":877,"x_min":146,"x_max":731,"o":"m 146 1316 l 292 1316 l 292 1170 l 146 1170 l 146 1316 m 292 1316 l 439 1316 l 439 1170 l 292 1170 l 292 1316 m 439 1170 l 585 1170 l 585 1023 l 439 1023 l 439 1170 m 585 1023 l 731 1023 l 731 877 l 585 877 l 585 1023 m 585 877 l 731 877 l 731 731 l 585 731 l 585 877 m 585 731 l 731 731 l 731 585 l 585 585 l 585 731 m 439 585 l 585 585 l 585 439 l 439 439 l 439 585 m 146 439 l 292 439 l 292 292 l 146 292 l 146 439 m 292 439 l 439 439 l 439 292 l 292 292 l 292 439 z "},"*":{"ha":1023,"x_min":146,"x_max":877,"o":"m 439 1316 l 585 1316 l 585 1170 l 439 1170 l 439 1316 m 146 1170 l 292 1170 l 292 1023 l 146 1023 l 146 1170 m 439 1170 l 585 1170 l 585 1023 l 439 1023 l 439 1170 m 731 1170 l 877 1170 l 877 1023 l 731 1023 l 731 1170 m 292 1023 l 439 1023 l 439 877 l 292 877 l 292 1023 m 439 1023 l 585 1023 l 585 877 l 439 877 l 439 1023 m 585 1023 l 731 1023 l 731 877 l 585 877 l 585 1023 m 439 877 l 585 877 l 585 731 l 439 731 l 439 877 m 292 731 l 439 731 l 439 585 l 292 585 l 292 731 m 439 731 l 585 731 l 585 585 l 439 585 l 439 731 m 585 731 l 731 731 l 731 585 l 585 585 l 585 731 m 146 585 l 292 585 l 292 439 l 146 439 l 146 585 m 439 585 l 585 585 l 585 439 l 439 439 l 439 585 m 731 585 l 877 585 l 877 439 l 731 439 l 731 585 m 439 439 l 585 439 l 585 292 l 439 292 l 439 439 z "},"+":{"ha":1023,"x_min":146,"x_max":877,"o":"m 439 1316 l 585 1316 l 585 1170 l 439 1170 l 439 1316 m 439 1170 l 585 1170 l 585 1023 l 439 1023 l 439 1170 m 439 1023 l 585 1023 l 585 877 l 439 877 l 439 1023 m 146 877 l 292 877 l 292 731 l 146 731 l 146 877 m 292 877 l 439 877 l 439 731 l 292 731 l 292 877 m 439 877 l 585 877 l 585 731 l 439 731 l 439 877 m 585 877 l 731 877 l 731 731 l 585 731 l 585 877 m 731 877 l 877 877 l 877 731 l 731 731 l 731 877 m 439 731 l 585 731 l 585 585 l 439 585 l 439 731 m 439 585 l 585 585 l 585 439 l 439 439 l 439 585 m 439 439 l 585 439 l 585 292 l 439 292 l 439 439 z "},",":{"ha":731,"x_min":292,"x_max":585,"o":"m 292 585 l 439 585 l 439 439 l 292 439 l 292 585 m 439 585 l 585 585 l 585 439 l 439 439 l 439 585 m 439 439 l 585 439 l 585 292 l 439 292 l 439 439 m 292 292 l 439 292 l 439 146 l 292 146 l 292 292 z "},"-":{"ha":1023,"x_min":146,"x_max":877,"o":"m 146 877 l 292 877 l 292 731 l 146 731 l 146 877 m 292 877 l 439 877 l 439 731 l 292 731 l 292 877 m 439 877 l 585 877 l 585 731 l 439 731 l 439 877 m 585 877 l 731 877 l 731 731 l 585 731 l 585 877 m 731 877 l 877 877 l 877 731 l 731 731 l 731 877 z "},".":{"ha":731,"x_min":292,"x_max":585,"o":"m 292 585 l 439 585 l 439 439 l 292 439 l 292 585 m 439 585 l 585 585 l 585 439 l 439 439 l 439 585 m 292 439 l 439 439 l 439 292 l 292 292 l 292 439 m 439 439 l 585 439 l 585 292 l 439 292 l 439 439 z "},"/":{"ha":1170,"x_min":0,"x_max":1023,"o":"m 877 1316 l 1023 1316 l 1023 1170 l 877 1170 l 877 1316 m 731 1170 l 877 1170 l 877 1023 l 731 1023 l 731 1170 m 585 1023 l 731 1023 l 731 877 l 585 877 l 585 1023 m 439 877 l 585 877 l 585 731 l 439 731 l 439 877 m 292 731 l 439 731 l 439 585 l 292 585 l 292 731 m 146 585 l 292 585 l 292 439 l 146 439 l 146 585 m 0 439 l 146 439 l 146 292 l 0 292 l 0 439 z "},":":{"ha":731,"x_min":292,"x_max":585,"o":"m 292 1170 l 439 1170 l 439 1023 l 292 1023 l 292 1170 m 439 1170 l 585 1170 l 585 1023 l 439 1023 l 439 1170 m 292 1023 l 439 1023 l 439 877 l 292 877 l 292 1023 m 439 1023 l 585 1023 l 585 877 l 439 877 l 439 1023 m 292 731 l 439 731 l 439 585 l 292 585 l 292 731 m 439 731 l 585 731 l 585 585 l 439 585 l 439 731 m 292 585 l 439 585 l 439 439 l 292 439 l 292 585 m 439 585 l 585 585 l 585 439 l 439 439 l 439 585 z "},";":{"ha":731,"x_min":292,"x_max":585,"o":"m 292 1170 l 439 1170 l 439 1023 l 292 1023 l 292 1170 m 439 1170 l 585 1170 l 585 1023 l 439 1023 l 439 1170 m 292 1023 l 439 1023 l 439 877 l 292 877 l 292 1023 m 439 1023 l 585 1023 l 585 877 l 439 877 l 439 1023 m 292 731 l 439 731 l 439 585 l 292 585 l 292 731 m 439 731 l 585 731 l 585 585 l 439 585 l 439 731 m 439 585 l 585 585 l 585 439 l 439 439 l 439 585 m 292 439 l 439 439 l 439 292 l 292 292 l 292 439 z "},"<":{"ha":1023,"x_min":292,"x_max":877,"o":"m 731 1316 l 877 1316 l 877 1170 l 731 1170 l 731 1316 m 585 1170 l 731 1170 l 731 1023 l 585 1023 l 585 1170 m 439 1023 l 585 1023 l 585 877 l 439 877 l 439 1023 m 292 877 l 439 877 l 439 731 l 292 731 l 292 877 m 439 731 l 585 731 l 585 585 l 439 585 l 439 731 m 585 585 l 731 585 l 731 439 l 585 439 l 585 585 m 731 439 l 877 439 l 877 292 l 731 292 l 731 439 z "},"=":{"ha":1023,"x_min":146,"x_max":877,"o":"m 146 1023 l 292 1023 l 292 877 l 146 877 l 146 1023 m 292 1023 l 439 1023 l 439 877 l 292 877 l 292 1023 m 439 1023 l 585 1023 l 585 877 l 439 877 l 439 1023 m 585 1023 l 731 1023 l 731 877 l 585 877 l 585 1023 m 731 1023 l 877 1023 l 877 877 l 731 877 l 731 1023 m 146 731 l 292 731 l 292 585 l 146 585 l 146 731 m 292 731 l 439 731 l 439 585 l 292 585 l 292 731 m 439 731 l 585 731 l 585 585 l 439 585 l 439 731 m 585 731 l 731 731 l 731 585 l 585 585 l 585 731 m 731 731 l 877 731 l 877 585 l 731 585 l 731 731 z "},">":{"ha":877,"x_min":146,"x_max":731,"o":"m 146 1316 l 292 1316 l 292 1170 l 146 1170 l 146 1316 m 292 1170 l 439 1170 l 439 1023 l 292 1023 l 292 1170 m 439 1023 l 585 1023 l 585 877 l 439 877 l 439 1023 m 585 877 l 731 877 l 731 731 l 585 731 l 585 877 m 439 731 l 585 731 l 585 585 l 439 585 l 439 731 m 292 585 l 439 585 l 439 439 l 292 439 l 292 585 m 146 439 l 292 439 l 292 292 l 146 292 l 146 439 z "},"?":{"ha":1170,"x_min":146,"x_max":1023,"o":"m 292 1316 l 439 1316 l 439 1170 l 292 1170 l 292 1316 m 439 1316 l 585 1316 l 585 1170 l 439 1170 l 439 1316 m 585 1316 l 731 1316 l 731 1170 l 585 1170 l 585 1316 m 731 1316 l 877 1316 l 877 1170 l 731 1170 l 731 1316 m 146 1170 l 292 1170 l 292 1023 l 146 1023 l 146 1170 m 877 1170 l 1023 1170 l 1023 1023 l 877 1023 l 877 1170 m 877 1023 l 1023 1023 l 1023 877 l 877 877 l 877 1023 m 585 877 l 731 877 l 731 731 l 585 731 l 585 877 m 731 877 l 877 877 l 877 731 l 731 731 l 731 877 m 439 731 l 585 731 l 585 585 l 439 585 l 439 731 m 439 439 l 585 439 l 585 292 l 439 292 l 439 439 z "},"A":{"ha":1316,"x_min":0,"x_max":1170,"o":"m 439 1316 l 585 1316 l 585 1170 l 439 1170 l 439 1316 m 585 1316 l 731 1316 l 731 1170 l 585 1170 l 585 1316 m 439 1170 l 585 1170 l 585 1023 l 439 1023 l 439 1170 m 585 1170 l 731 1170 l 731 1023 l 585 1023 l 585 1170 m 292 1023 l 439 1023 l 439 877 l 292 877 l 292 1023 m 585 1023 l 731 1023 l 731 877 l 585 877 l 585 1023 m 731 1023 l 877 1023 l 877 877 l 731 877 l 731 1023 m 292 877 l 439 877 l 439 731 l 292 731 l 292 877 m 585 877 l 731 877 l 731 731 l 585 731 l 585 877 m 731 877 l 877 877 l 877 731 l 731 731 l 731 877 m 292 731 l 439 731 l 439 585 l 292 585 l 292 731 m 439 731 l 585 731 l 585 585 l 439 585 l 439 731 m 585 731 l 731 731 l 731 585 l 585 585 l 585 731 m 731 731 l 877 731 l 877 585 l 731 585 l 731 731 m 877 731 l 1023 731 l 1023 585 l 877 585 l 877 731 m 146 585 l 292 585 l 292 439 l 146 439 l 146 585 m 731 585 l 877 585 l 877 439 l 731 439 l 731 585 m 877 585 l 1023 585 l 1023 439 l 877 439 l 877 585 m 0 439 l 146 439 l 146 292 l 0 292 l 0 439 m 146 439 l 292 439 l 292 292 l 146 292 l 146 439 m 292 439 l 439 439 l 439 292 l 292 292 l 292 439 m 585 439 l 731 439 l 731 292 l 585 292 l 585 439 m 731 439 l 877 439 l 877 292 l 731 292 l 731 439 m 877 439 l 1023 439 l 1023 292 l 877 292 l 877 439 m 1023 439 l 1170 439 l 1170 292 l 1023 292 l 1023 439 z "},"B":{"ha":1316,"x_min":146,"x_max":1170,"o":"m 146 1316 l 292 1316 l 292 1170 l 146 1170 l 146 1316 m 292 1316 l 439 1316 l 439 1170 l 292 1170 l 292 1316 m 439 1316 l 585 1316 l 585 1170 l 439 1170 l 439 1316 m 585 1316 l 731 1316 l 731 1170 l 585 1170 l 585 1316 m 731 1316 l 877 1316 l 877 1170 l 731 1170 l 731 1316 m 877 1316 l 1023 1316 l 1023 1170 l 877 1170 l 877 1316 m 292 1170 l 439 1170 l 439 1023 l 292 1023 l 292 1170 m 439 1170 l 585 1170 l 585 1023 l 439 1023 l 439 1170 m 1023 1170 l 1170 1170 l 1170 1023 l 1023 1023 l 1023 1170 m 292 1023 l 439 1023 l 439 877 l 292 877 l 292 1023 m 439 1023 l 585 1023 l 585 877 l 439 877 l 439 1023 m 1023 1023 l 1170 1023 l 1170 877 l 1023 877 l 1023 1023 m 292 877 l 439 877 l 439 731 l 292 731 l 292 877 m 439 877 l 585 877 l 585 731 l 439 731 l 439 877 m 585 877 l 731 877 l 731 731 l 585 731 l 585 877 m 731 877 l 877 877 l 877 731 l 731 731 l 731 877 m 877 877 l 1023 877 l 1023 731 l 877 731 l 877 877 m 292 731 l 439 731 l 439 585 l 292 585 l 292 731 m 439 731 l 585 731 l 585 585 l 439 585 l 439 731 m 1023 731 l 1170 731 l 1170 585 l 1023 585 l 1023 731 m 292 585 l 439 585 l 439 439 l 292 439 l 292 585 m 439 585 l 585 585 l 585 439 l 439 439 l 439 585 m 1023 585 l 1170 585 l 1170 439 l 1023 439 l 1023 585 m 146 439 l 292 439 l 292 292 l 146 292 l 146 439 m 292 439 l 439 439 l 439 292 l 292 292 l 292 439 m 439 439 l 585 439 l 585 292 l 439 292 l 439 439 m 585 439 l 731 439 l 731 292 l 585 292 l 585 439 m 731 439 l 877 439 l 877 292 l 731 292 l 731 439 m 877 439 l 1023 439 l 1023 292 l 877 292 l 877 439 z "},"C":{"ha":1316,"x_min":146,"x_max":1170,"o":"m 292 1316 l 439 1316 l 439 1170 l 292 1170 l 292 1316 m 439 1316 l 585 1316 l 585 1170 l 439 1170 l 439 1316 m 585 1316 l 731 1316 l 731 1170 l 585 1170 l 585 1316 m 731 1316 l 877 1316 l 877 1170 l 731 1170 l 731 1316 m 1023 1316 l 1170 1316 l 1170 1170 l 1023 1170 l 1023 1316 m 146 1170 l 292 1170 l 292 1023 l 146 1023 l 146 1170 m 292 1170 l 439 1170 l 439 1023 l 292 1023 l 292 1170 m 877 1170 l 1023 1170 l 1023 1023 l 877 1023 l 877 1170 m 1023 1170 l 1170 1170 l 1170 1023 l 1023 1023 l 1023 1170 m 146 1023 l 292 1023 l 292 877 l 146 877 l 146 1023 m 292 1023 l 439 1023 l 439 877 l 292 877 l 292 1023 m 1023 1023 l 1170 1023 l 1170 877 l 1023 877 l 1023 1023 m 146 877 l 292 877 l 292 731 l 146 731 l 146 877 m 292 877 l 439 877 l 439 731 l 292 731 l 292 877 m 146 731 l 292 731 l 292 585 l 146 585 l 146 731 m 292 731 l 439 731 l 439 585 l 292 585 l 292 731 m 1023 731 l 1170 731 l 1170 585 l 1023 585 l 1023 731 m 146 585 l 292 585 l 292 439 l 146 439 l 146 585 m 292 585 l 439 585 l 439 439 l 292 439 l 292 585 m 1023 585 l 1170 585 l 1170 439 l 1023 439 l 1023 585 m 292 439 l 439 439 l 439 292 l 292 292 l 292 439 m 439 439 l 585 439 l 585 292 l 439 292 l 439 439 m 585 439 l 731 439 l 731 292 l 585 292 l 585 439 m 731 439 l 877 439 l 877 292 l 731 292 l 731 439 m 877 439 l 1023 439 l 1023 292 l 877 292 l 877 439 z "},"D":{"ha":1316,"x_min":146,"x_max":1170,"o":"m 146 1316 l 292 1316 l 292 1170 l 146 1170 l 146 1316 m 292 1316 l 439 1316 l 439 1170 l 292 1170 l 292 1316 m 439 1316 l 585 1316 l 585 1170 l 439 1170 l 439 1316 m 585 1316 l 731 1316 l 731 1170 l 585 1170 l 585 1316 m 731 1316 l 877 1316 l 877 1170 l 731 1170 l 731 1316 m 877 1316 l 1023 1316 l 1023 1170 l 877 1170 l 877 1316 m 292 1170 l 439 1170 l 439 1023 l 292 1023 l 292 1170 m 439 1170 l 585 1170 l 585 1023 l 439 1023 l 439 1170 m 1023 1170 l 1170 1170 l 1170 1023 l 1023 1023 l 1023 1170 m 292 1023 l 439 1023 l 439 877 l 292 877 l 292 1023 m 439 1023 l 585 1023 l 585 877 l 439 877 l 439 1023 m 1023 1023 l 1170 1023 l 1170 877 l 1023 877 l 1023 1023 m 292 877 l 439 877 l 439 731 l 292 731 l 292 877 m 439 877 l 585 877 l 585 731 l 439 731 l 439 877 m 1023 877 l 1170 877 l 1170 731 l 1023 731 l 1023 877 m 292 731 l 439 731 l 439 585 l 292 585 l 292 731 m 439 731 l 585 731 l 585 585 l 439 585 l 439 731 m 1023 731 l 1170 731 l 1170 585 l 1023 585 l 1023 731 m 292 585 l 439 585 l 439 439 l 292 439 l 292 585 m 439 585 l 585 585 l 585 439 l 439 439 l 439 585 m 1023 585 l 1170 585 l 1170 439 l 1023 439 l 1023 585 m 146 439 l 292 439 l 292 292 l 146 292 l 146 439 m 292 439 l 439 439 l 439 292 l 292 292 l 292 439 m 439 439 l 585 439 l 585 292 l 439 292 l 439 439 m 585 439 l 731 439 l 731 292 l 585 292 l 585 439 m 731 439 l 877 439 l 877 292 l 731 292 l 731 439 m 877 439 l 1023 439 l 1023 292 l 877 292 l 877 439 z "},"E":{"ha":1316,"x_min":146,"x_max":1170,"o":"m 146 1316 l 292 1316 l 292 1170 l 146 1170 l 146 1316 m 292 1316 l 439 1316 l 439 1170 l 292 1170 l 292 1316 m 439 1316 l 585 1316 l 585 1170 l 439 1170 l 439 1316 m 585 1316 l 731 1316 l 731 1170 l 585 1170 l 585 1316 m 731 1316 l 877 1316 l 877 1170 l 731 1170 l 731 1316 m 877 1316 l 1023 1316 l 1023 1170 l 877 1170 l 877 1316 m 292 1170 l 439 1170 l 439 1023 l 292 1023 l 292 1170 m 439 1170 l 585 1170 l 585 1023 l 439 1023 l 439 1170 m 1023 1170 l 1170 1170 l 1170 1023 l 1023 1023 l 1023 1170 m 292 1023 l 439 1023 l 439 877 l 292 877 l 292 1023 m 439 1023 l 585 1023 l 585 877 l 439 877 l 439 1023 m 731 1023 l 877 1023 l 877 877 l 731 877 l 731 1023 m 292 877 l 439 877 l 439 731 l 292 731 l 292 877 m 439 877 l 585 877 l 585 731 l 439 731 l 439 877 m 585 877 l 731 877 l 731 731 l 585 731 l 585 877 m 731 877 l 877 877 l 877 731 l 731 731 l 731 877 m 292 731 l 439 731 l 439 585 l 292 585 l 292 731 m 439 731 l 585 731 l 585 585 l 439 585 l 439 731 m 731 731 l 877 731 l 877 585 l 731 585 l 731 731 m 292 585 l 439 585 l 439 439 l 292 439 l 292 585 m 439 585 l 585 585 l 585 439 l 439 439 l 439 585 m 1023 585 l 1170 585 l 1170 439 l 1023 439 l 1023 585 m 146 439 l 292 439 l 292 292 l 146 292 l 146 439 m 292 439 l 439 439 l 439 292 l 292 292 l 292 439 m 439 439 l 585 439 l 585 292 l 439 292 l 439 439 m 585 439 l 731 439 l 731 292 l 585 292 l 585 439 m 731 439 l 877 439 l 877 292 l 731 292 l 731 439 m 877 439 l 1023 439 l 1023 292 l 877 292 l 877 439 m 1023 439 l 1170 439 l 1170 292 l 1023 292 l 1023 439 z "},"F":{"ha":1316,"x_min":146,"x_max":1170,"o":"m 146 1316 l 292 1316 l 292 1170 l 146 1170 l 146 1316 m 292 1316 l 439 1316 l 439 1170 l 292 1170 l 292 1316 m 439 1316 l 585 1316 l 585 1170 l 439 1170 l 439 1316 m 585 1316 l 731 1316 l 731 1170 l 585 1170 l 585 1316 m 731 1316 l 877 1316 l 877 1170 l 731 1170 l 731 1316 m 877 1316 l 1023 1316 l 1023 1170 l 877 1170 l 877 1316 m 292 1170 l 439 1170 l 439 1023 l 292 1023 l 292 1170 m 439 1170 l 585 1170 l 585 1023 l 439 1023 l 439 1170 m 1023 1170 l 1170 1170 l 1170 1023 l 1023 1023 l 1023 1170 m 292 1023 l 439 1023 l 439 877 l 292 877 l 292 1023 m 439 1023 l 585 1023 l 585 877 l 439 877 l 439 1023 m 731 1023 l 877 1023 l 877 877 l 731 877 l 731 1023 m 292 877 l 439 877 l 439 731 l 292 731 l 292 877 m 439 877 l 585 877 l 585 731 l 439 731 l 439 877 m 585 877 l 731 877 l 731 731 l 585 731 l 585 877 m 731 877 l 877 877 l 877 731 l 731 731 l 731 877 m 292 731 l 439 731 l 439 585 l 292 585 l 292 731 m 439 731 l 585 731 l 585 585 l 439 585 l 439 731 m 731 731 l 877 731 l 877 585 l 731 585 l 731 731 m 292 585 l 439 585 l 439 439 l 292 439 l 292 585 m 439 585 l 585 585 l 585 439 l 439 439 l 439 585 m 146 439 l 292 439 l 292 292 l 146 292 l 146 439 m 292 439 l 439 439 l 439 292 l 292 292 l 292 439 m 439 439 l 585 439 l 585 292 l 439 292 l 439 439 m 585 439 l 731 439 l 731 292 l 585 292 l 585 439 z "},"G":{"ha":1316,"x_min":146,"x_max":1170,"o":"m 292 1316 l 439 1316 l 439 1170 l 292 1170 l 292 1316 m 439 1316 l 585 1316 l 585 1170 l 439 1170 l 439 1316 m 585 1316 l 731 1316 l 731 1170 l 585 1170 l 585 1316 m 731 1316 l 877 1316 l 877 1170 l 731 1170 l 731 1316 m 1023 1316 l 1170 1316 l 1170 1170 l 1023 1170 l 1023 1316 m 146 1170 l 292 1170 l 292 1023 l 146 1023 l 146 1170 m 292 1170 l 439 1170 l 439 1023 l 292 1023 l 292 1170 m 877 1170 l 1023 1170 l 1023 1023 l 877 1023 l 877 1170 m 1023 1170 l 1170 1170 l 1170 1023 l 1023 1023 l 1023 1170 m 146 1023 l 292 1023 l 292 877 l 146 877 l 146 1023 m 292 1023 l 439 1023 l 439 877 l 292 877 l 292 1023 m 146 877 l 292 877 l 292 731 l 146 731 l 146 877 m 292 877 l 439 877 l 439 731 l 292 731 l 292 877 m 731 877 l 877 877 l 877 731 l 731 731 l 731 877 m 877 877 l 1023 877 l 1023 731 l 877 731 l 877 877 m 1023 877 l 1170 877 l 1170 731 l 1023 731 l 1023 877 m 146 731 l 292 731 l 292 585 l 146 585 l 146 731 m 292 731 l 439 731 l 439 585 l 292 585 l 292 731 m 877 731 l 1023 731 l 1023 585 l 877 585 l 877 731 m 1023 731 l 1170 731 l 1170 585 l 1023 585 l 1023 731 m 146 585 l 292 585 l 292 439 l 146 439 l 146 585 m 292 585 l 439 585 l 439 439 l 292 439 l 292 585 m 877 585 l 1023 585 l 1023 439 l 877 439 l 877 585 m 1023 585 l 1170 585 l 1170 439 l 1023 439 l 1023 585 m 292 439 l 439 439 l 439 292 l 292 292 l 292 439 m 439 439 l 585 439 l 585 292 l 439 292 l 439 439 m 585 439 l 731 439 l 731 292 l 585 292 l 585 439 m 731 439 l 877 439 l 877 292 l 731 292 l 731 439 m 1023 439 l 1170 439 l 1170 292 l 1023 292 l 1023 439 z "},"H":{"ha":1316,"x_min":0,"x_max":1170,"o":"m 0 1316 l 146 1316 l 146 1170 l 0 1170 l 0 1316 m 146 1316 l 292 1316 l 292 1170 l 146 1170 l 146 1316 m 292 1316 l 439 1316 l 439 1170 l 292 1170 l 292 1316 m 439 1316 l 585 1316 l 585 1170 l 439 1170 l 439 1316 m 731 1316 l 877 1316 l 877 1170 l 731 1170 l 731 1316 m 877 1316 l 1023 1316 l 1023 1170 l 877 1170 l 877 1316 m 1023 1316 l 1170 1316 l 1170 1170 l 1023 1170 l 1023 1316 m 146 1170 l 292 1170 l 292 1023 l 146 1023 l 146 1170 m 292 1170 l 439 1170 l 439 1023 l 292 1023 l 292 1170 m 877 1170 l 1023 1170 l 1023 1023 l 877 1023 l 877 1170 m 146 1023 l 292 1023 l 292 877 l 146 877 l 146 1023 m 292 1023 l 439 1023 l 439 877 l 292 877 l 292 1023 m 877 1023 l 1023 1023 l 1023 877 l 877 877 l 877 1023 m 146 877 l 292 877 l 292 731 l 146 731 l 146 877 m 292 877 l 439 877 l 439 731 l 292 731 l 292 877 m 439 877 l 585 877 l 585 731 l 439 731 l 439 877 m 585 877 l 731 877 l 731 731 l 585 731 l 585 877 m 731 877 l 877 877 l 877 731 l 731 731 l 731 877 m 877 877 l 1023 877 l 1023 731 l 877 731 l 877 877 m 146 731 l 292 731 l 292 585 l 146 585 l 146 731 m 292 731 l 439 731 l 439 585 l 292 585 l 292 731 m 877 731 l 1023 731 l 1023 585 l 877 585 l 877 731 m 146 585 l 292 585 l 292 439 l 146 439 l 146 585 m 292 585 l 439 585 l 439 439 l 292 439 l 292 585 m 877 585 l 1023 585 l 1023 439 l 877 439 l 877 585 m 0 439 l 146 439 l 146 292 l 0 292 l 0 439 m 146 439 l 292 439 l 292 292 l 146 292 l 146 439 m 292 439 l 439 439 l 439 292 l 292 292 l 292 439 m 439 439 l 585 439 l 585 292 l 439 292 l 439 439 m 731 439 l 877 439 l 877 292 l 731 292 l 731 439 m 877 439 l 1023 439 l 1023 292 l 877 292 l 877 439 m 1023 439 l 1170 439 l 1170 292 l 1023 292 l 1023 439 z "},"I":{"ha":1023,"x_min":292,"x_max":877,"o":"m 292 1316 l 439 1316 l 439 1170 l 292 1170 l 292 1316 m 439 1316 l 585 1316 l 585 1170 l 439 1170 l 439 1316 m 585 1316 l 731 1316 l 731 1170 l 585 1170 l 585 1316 m 731 1316 l 877 1316 l 877 1170 l 731 1170 l 731 1316 m 439 1170 l 585 1170 l 585 1023 l 439 1023 l 439 1170 m 585 1170 l 731 1170 l 731 1023 l 585 1023 l 585 1170 m 439 1023 l 585 1023 l 585 877 l 439 877 l 439 1023 m 585 1023 l 731 1023 l 731 877 l 585 877 l 585 1023 m 439 877 l 585 877 l 585 731 l 439 731 l 439 877 m 585 877 l 731 877 l 731 731 l 585 731 l 585 877 m 439 731 l 585 731 l 585 585 l 439 585 l 439 731 m 585 731 l 731 731 l 731 585 l 585 585 l 585 731 m 439 585 l 585 585 l 585 439 l 439 439 l 439 585 m 585 585 l 731 585 l 731 439 l 585 439 l 585 585 m 292 439 l 439 439 l 439 292 l 292 292 l 292 439 m 439 439 l 585 439 l 585 292 l 439 292 l 439 439 m 585 439 l 731 439 l 731 292 l 585 292 l 585 439 m 731 439 l 877 439 l 877 292 l 731 292 l 731 439 z "},"J":{"ha":1170,"x_min":146,"x_max":1023,"o":"m 439 1316 l 585 1316 l 585 1170 l 439 1170 l 439 1316 m 585 1316 l 731 1316 l 731 1170 l 585 1170 l 585 1316 m 731 1316 l 877 1316 l 877 1170 l 731 1170 l 731 1316 m 877 1316 l 1023 1316 l 1023 1170 l 877 1170 l 877 1316 m 585 1170 l 731 1170 l 731 1023 l 585 1023 l 585 1170 m 731 1170 l 877 1170 l 877 1023 l 731 1023 l 731 1170 m 585 1023 l 731 1023 l 731 877 l 585 877 l 585 1023 m 731 1023 l 877 1023 l 877 877 l 731 877 l 731 1023 m 585 877 l 731 877 l 731 731 l 585 731 l 585 877 m 731 877 l 877 877 l 877 731 l 731 731 l 731 877 m 146 731 l 292 731 l 292 585 l 146 585 l 146 731 m 292 731 l 439 731 l 439 585 l 292 585 l 292 731 m 585 731 l 731 731 l 731 585 l 585 585 l 585 731 m 731 731 l 877 731 l 877 585 l 731 585 l 731 731 m 146 585 l 292 585 l 292 439 l 146 439 l 146 585 m 585 585 l 731 585 l 731 439 l 585 439 l 585 585 m 731 585 l 877 585 l 877 439 l 731 439 l 731 585 m 292 439 l 439 439 l 439 292 l 292 292 l 292 439 m 439 439 l 585 439 l 585 292 l 439 292 l 439 439 m 585 439 l 731 439 l 731 292 l 585 292 l 585 439 z "},"K":{"ha":1316,"x_min":146,"x_max":1170,"o":"m 146 1316 l 292 1316 l 292 1170 l 146 1170 l 146 1316 m 292 1316 l 439 1316 l 439 1170 l 292 1170 l 292 1316 m 439 1316 l 585 1316 l 585 1170 l 439 1170 l 439 1316 m 731 1316 l 877 1316 l 877 1170 l 731 1170 l 731 1316 m 877 1316 l 1023 1316 l 1023 1170 l 877 1170 l 877 1316 m 1023 1316 l 1170 1316 l 1170 1170 l 1023 1170 l 1023 1316 m 292 1170 l 439 1170 l 439 1023 l 292 1023 l 292 1170 m 439 1170 l 585 1170 l 585 1023 l 439 1023 l 439 1170 m 877 1170 l 1023 1170 l 1023 1023 l 877 1023 l 877 1170 m 292 1023 l 439 1023 l 439 877 l 292 877 l 292 1023 m 439 1023 l 585 1023 l 585 877 l 439 877 l 439 1023 m 731 1023 l 877 1023 l 877 877 l 731 877 l 731 1023 m 292 877 l 439 877 l 439 731 l 292 731 l 292 877 m 439 877 l 585 877 l 585 731 l 439 731 l 439 877 m 585 877 l 731 877 l 731 731 l 585 731 l 585 877 m 292 731 l 439 731 l 439 585 l 292 585 l 292 731 m 439 731 l 585 731 l 585 585 l 439 585 l 439 731 m 731 731 l 877 731 l 877 585 l 731 585 l 731 731 m 292 585 l 439 585 l 439 439 l 292 439 l 292 585 m 439 585 l 585 585 l 585 439 l 439 439 l 439 585 m 877 585 l 1023 585 l 1023 439 l 877 439 l 877 585 m 146 439 l 292 439 l 292 292 l 146 292 l 146 439 m 292 439 l 439 439 l 439 292 l 292 292 l 292 439 m 439 439 l 585 439 l 585 292 l 439 292 l 439 439 m 585 439 l 731 439 l 731 292 l 585 292 l 585 439 m 877 439 l 1023 439 l 1023 292 l 877 292 l 877 439 m 1023 439 l 1170 439 l 1170 292 l 1023 292 l 1023 439 z "},"L":{"ha":1316,"x_min":146,"x_max":1170,"o":"m 146 1316 l 292 1316 l 292 1170 l 146 1170 l 146 1316 m 292 1316 l 439 1316 l 439 1170 l 292 1170 l 292 1316 m 439 1316 l 585 1316 l 585 1170 l 439 1170 l 439 1316 m 585 1316 l 731 1316 l 731 1170 l 585 1170 l 585 1316 m 292 1170 l 439 1170 l 439 1023 l 292 1023 l 292 1170 m 439 1170 l 585 1170 l 585 1023 l 439 1023 l 439 1170 m 292 1023 l 439 1023 l 439 877 l 292 877 l 292 1023 m 439 1023 l 585 1023 l 585 877 l 439 877 l 439 1023 m 292 877 l 439 877 l 439 731 l 292 731 l 292 877 m 439 877 l 585 877 l 585 731 l 439 731 l 439 877 m 292 731 l 439 731 l 439 585 l 292 585 l 292 731 m 439 731 l 585 731 l 585 585 l 439 585 l 439 731 m 292 585 l 439 585 l 439 439 l 292 439 l 292 585 m 439 585 l 585 585 l 585 439 l 439 439 l 439 585 m 1023 585 l 1170 585 l 1170 439 l 1023 439 l 1023 585 m 146 439 l 292 439 l 292 292 l 146 292 l 146 439 m 292 439 l 439 439 l 439 292 l 292 292 l 292 439 m 439 439 l 585 439 l 585 292 l 439 292 l 439 439 m 585 439 l 731 439 l 731 292 l 585 292 l 585 439 m 731 439 l 877 439 l 877 292 l 731 292 l 731 439 m 877 439 l 1023 439 l 1023 292 l 877 292 l 877 439 z "},"M":{"ha":1316,"x_min":0,"x_max":1170,"o":"m 0 1316 l 146 1316 l 146 1170 l 0 1170 l 0 1316 m 146 1316 l 292 1316 l 292 1170 l 146 1170 l 146 1316 m 292 1316 l 439 1316 l 439 1170 l 292 1170 l 292 1316 m 877 1316 l 1023 1316 l 1023 1170 l 877 1170 l 877 1316 m 1023 1316 l 1170 1316 l 1170 1170 l 1023 1170 l 1023 1316 m 146 1170 l 292 1170 l 292 1023 l 146 1023 l 146 1170 m 292 1170 l 439 1170 l 439 1023 l 292 1023 l 292 1170 m 439 1170 l 585 1170 l 585 1023 l 439 1023 l 439 1170 m 731 1170 l 877 1170 l 877 1023 l 731 1023 l 731 1170 m 877 1170 l 1023 1170 l 1023 1023 l 877 1023 l 877 1170 m 146 1023 l 292 1023 l 292 877 l 146 877 l 146 1023 m 292 1023 l 439 1023 l 439 877 l 292 877 l 292 1023 m 439 1023 l 585 1023 l 585 877 l 439 877 l 439 1023 m 585 1023 l 731 1023 l 731 877 l 585 877 l 585 1023 m 731 1023 l 877 1023 l 877 877 l 731 877 l 731 1023 m 877 1023 l 1023 1023 l 1023 877 l 877 877 l 877 1023 m 146 877 l 292 877 l 292 731 l 146 731 l 146 877 m 292 877 l 439 877 l 439 731 l 292 731 l 292 877 m 585 877 l 731 877 l 731 731 l 585 731 l 585 877 m 877 877 l 1023 877 l 1023 731 l 877 731 l 877 877 m 146 731 l 292 731 l 292 585 l 146 585 l 146 731 m 292 731 l 439 731 l 439 585 l 292 585 l 292 731 m 585 731 l 731 731 l 731 585 l 585 585 l 585 731 m 877 731 l 1023 731 l 1023 585 l 877 585 l 877 731 m 146 585 l 292 585 l 292 439 l 146 439 l 146 585 m 292 585 l 439 585 l 439 439 l 292 439 l 292 585 m 877 585 l 1023 585 l 1023 439 l 877 439 l 877 585 m 0 439 l 146 439 l 146 292 l 0 292 l 0 439 m 146 439 l 292 439 l 292 292 l 146 292 l 146 439 m 292 439 l 439 439 l 439 292 l 292 292 l 292 439 m 439 439 l 585 439 l 585 292 l 439 292 l 439 439 m 731 439 l 877 439 l 877 292 l 731 292 l 731 439 m 877 439 l 1023 439 l 1023 292 l 877 292 l 877 439 m 1023 439 l 1170 439 l 1170 292 l 1023 292 l 1023 439 z "},"N":{"ha":1316,"x_min":0,"x_max":1170,"o":"m 0 1316 l 146 1316 l 146 1170 l 0 1170 l 0 1316 m 146 1316 l 292 1316 l 292 1170 l 146 1170 l 146 1316 m 292 1316 l 439 1316 l 439 1170 l 292 1170 l 292 1316 m 731 1316 l 877 1316 l 877 1170 l 731 1170 l 731 1316 m 877 1316 l 1023 1316 l 1023 1170 l 877 1170 l 877 1316 m 1023 1316 l 1170 1316 l 1170 1170 l 1023 1170 l 1023 1316 m 146 1170 l 292 1170 l 292 1023 l 146 1023 l 146 1170 m 292 1170 l 439 1170 l 439 1023 l 292 1023 l 292 1170 m 439 1170 l 585 1170 l 585 1023 l 439 1023 l 439 1170 m 877 1170 l 1023 1170 l 1023 1023 l 877 1023 l 877 1170 m 146 1023 l 292 1023 l 292 877 l 146 877 l 146 1023 m 292 1023 l 439 1023 l 439 877 l 292 877 l 292 1023 m 439 1023 l 585 1023 l 585 877 l 439 877 l 439 1023 m 585 1023 l 731 1023 l 731 877 l 585 877 l 585 1023 m 877 1023 l 1023 1023 l 1023 877 l 877 877 l 877 1023 m 146 877 l 292 877 l 292 731 l 146 731 l 146 877 m 292 877 l 439 877 l 439 731 l 292 731 l 292 877 m 585 877 l 731 877 l 731 731 l 585 731 l 585 877 m 731 877 l 877 877 l 877 731 l 731 731 l 731 877 m 877 877 l 1023 877 l 1023 731 l 877 731 l 877 877 m 146 731 l 292 731 l 292 585 l 146 585 l 146 731 m 292 731 l 439 731 l 439 585 l 292 585 l 292 731 m 731 731 l 877 731 l 877 585 l 731 585 l 731 731 m 877 731 l 1023 731 l 1023 585 l 877 585 l 877 731 m 146 585 l 292 585 l 292 439 l 146 439 l 146 585 m 292 585 l 439 585 l 439 439 l 292 439 l 292 585 m 877 585 l 1023 585 l 1023 439 l 877 439 l 877 585 m 0 439 l 146 439 l 146 292 l 0 292 l 0 439 m 146 439 l 292 439 l 292 292 l 146 292 l 146 439 m 292 439 l 439 439 l 439 292 l 292 292 l 292 439 m 439 439 l 585 439 l 585 292 l 439 292 l 439 439 m 731 439 l 877 439 l 877 292 l 731 292 l 731 439 m 877 439 l 1023 439 l 1023 292 l 877 292 l 877 439 m 1023 439 l 1170 439 l 1170 292 l 1023 292 l 1023 439 z "},"O":{"ha":1170,"x_min":146,"x_max":1023,"o":"m 292 1316 l 439 1316 l 439 1170 l 292 1170 l 292 1316 m 439 1316 l 585 1316 l 585 1170 l 439 1170 l 439 1316 m 585 1316 l 731 1316 l 731 1170 l 585 1170 l 585 1316 m 731 1316 l 877 1316 l 877 1170 l 731 1170 l 731 1316 m 146 1170 l 292 1170 l 292 1023 l 146 1023 l 146 1170 m 292 1170 l 439 1170 l 439 1023 l 292 1023 l 292 1170 m 877 1170 l 1023 1170 l 1023 1023 l 877 1023 l 877 1170 m 146 1023 l 292 1023 l 292 877 l 146 877 l 146 1023 m 292 1023 l 439 1023 l 439 877 l 292 877 l 292 1023 m 877 1023 l 1023 1023 l 1023 877 l 877 877 l 877 1023 m 146 877 l 292 877 l 292 731 l 146 731 l 146 877 m 292 877 l 439 877 l 439 731 l 292 731 l 292 877 m 877 877 l 1023 877 l 1023 731 l 877 731 l 877 877 m 146 731 l 292 731 l 292 585 l 146 585 l 146 731 m 292 731 l 439 731 l 439 585 l 292 585 l 292 731 m 877 731 l 1023 731 l 1023 585 l 877 585 l 877 731 m 146 585 l 292 585 l 292 439 l 146 439 l 146 585 m 292 585 l 439 585 l 439 439 l 292 439 l 292 585 m 877 585 l 1023 585 l 1023 439 l 877 439 l 877 585 m 292 439 l 439 439 l 439 292 l 292 292 l 292 439 m 439 439 l 585 439 l 585 292 l 439 292 l 439 439 m 585 439 l 731 439 l 731 292 l 585 292 l 585 439 m 731 439 l 877 439 l 877 292 l 731 292 l 731 439 z "},"P":{"ha":1316,"x_min":146,"x_max":1170,"o":"m 146 1316 l 292 1316 l 292 1170 l 146 1170 l 146 1316 m 292 1316 l 439 1316 l 439 1170 l 292 1170 l 292 1316 m 439 1316 l 585 1316 l 585 1170 l 439 1170 l 439 1316 m 585 1316 l 731 1316 l 731 1170 l 585 1170 l 585 1316 m 731 1316 l 877 1316 l 877 1170 l 731 1170 l 731 1316 m 877 1316 l 1023 1316 l 1023 1170 l 877 1170 l 877 1316 m 292 1170 l 439 1170 l 439 1023 l 292 1023 l 292 1170 m 439 1170 l 585 1170 l 585 1023 l 439 1023 l 439 1170 m 1023 1170 l 1170 1170 l 1170 1023 l 1023 1023 l 1023 1170 m 292 1023 l 439 1023 l 439 877 l 292 877 l 292 1023 m 439 1023 l 585 1023 l 585 877 l 439 877 l 439 1023 m 1023 1023 l 1170 1023 l 1170 877 l 1023 877 l 1023 1023 m 292 877 l 439 877 l 439 731 l 292 731 l 292 877 m 439 877 l 585 877 l 585 731 l 439 731 l 439 877 m 1023 877 l 1170 877 l 1170 731 l 1023 731 l 1023 877 m 292 731 l 439 731 l 439 585 l 292 585 l 292 731 m 439 731 l 585 731 l 585 585 l 439 585 l 439 731 m 585 731 l 731 731 l 731 585 l 585 585 l 585 731 m 731 731 l 877 731 l 877 585 l 731 585 l 731 731 m 877 731 l 1023 731 l 1023 585 l 877 585 l 877 731 m 292 585 l 439 585 l 439 439 l 292 439 l 292 585 m 439 585 l 585 585 l 585 439 l 439 439 l 439 585 m 146 439 l 292 439 l 292 292 l 146 292 l 146 439 m 292 439 l 439 439 l 439 292 l 292 292 l 292 439 m 439 439 l 585 439 l 585 292 l 439 292 l 439 439 m 585 439 l 731 439 l 731 292 l 585 292 l 585 439 z "},"Q":{"ha":1316,"x_min":146,"x_max":1170,"o":"m 292 1316 l 439 1316 l 439 1170 l 292 1170 l 292 1316 m 439 1316 l 585 1316 l 585 1170 l 439 1170 l 439 1316 m 585 1316 l 731 1316 l 731 1170 l 585 1170 l 585 1316 m 731 1316 l 877 1316 l 877 1170 l 731 1170 l 731 1316 m 146 1170 l 292 1170 l 292 1023 l 146 1023 l 146 1170 m 292 1170 l 439 1170 l 439 1023 l 292 1023 l 292 1170 m 877 1170 l 1023 1170 l 1023 1023 l 877 1023 l 877 1170 m 146 1023 l 292 1023 l 292 877 l 146 877 l 146 1023 m 292 1023 l 439 1023 l 439 877 l 292 877 l 292 1023 m 877 1023 l 1023 1023 l 1023 877 l 877 877 l 877 1023 m 146 877 l 292 877 l 292 731 l 146 731 l 146 877 m 292 877 l 439 877 l 439 731 l 292 731 l 292 877 m 877 877 l 1023 877 l 1023 731 l 877 731 l 877 877 m 146 731 l 292 731 l 292 585 l 146 585 l 146 731 m 292 731 l 439 731 l 439 585 l 292 585 l 292 731 m 439 731 l 585 731 l 585 585 l 439 585 l 439 731 m 585 731 l 731 731 l 731 585 l 585 585 l 585 731 m 877 731 l 1023 731 l 1023 585 l 877 585 l 877 731 m 146 585 l 292 585 l 292 439 l 146 439 l 146 585 m 292 585 l 439 585 l 439 439 l 292 439 l 292 585 m 731 585 l 877 585 l 877 439 l 731 439 l 731 585 m 877 585 l 1023 585 l 1023 439 l 877 439 l 877 585 m 292 439 l 439 439 l 439 292 l 292 292 l 292 439 m 439 439 l 585 439 l 585 292 l 439 292 l 439 439 m 585 439 l 731 439 l 731 292 l 585 292 l 585 439 m 877 439 l 1023 439 l 1023 292 l 877 292 l 877 439 m 1023 439 l 1170 439 l 1170 292 l 1023 292 l 1023 439 z "},"R":{"ha":1316,"x_min":146,"x_max":1170,"o":"m 146 1316 l 292 1316 l 292 1170 l 146 1170 l 146 1316 m 292 1316 l 439 1316 l 439 1170 l 292 1170 l 292 1316 m 439 1316 l 585 1316 l 585 1170 l 439 1170 l 439 1316 m 585 1316 l 731 1316 l 731 1170 l 585 1170 l 585 1316 m 731 1316 l 877 1316 l 877 1170 l 731 1170 l 731 1316 m 877 1316 l 1023 1316 l 1023 1170 l 877 1170 l 877 1316 m 292 1170 l 439 1170 l 439 1023 l 292 1023 l 292 1170 m 439 1170 l 585 1170 l 585 1023 l 439 1023 l 439 1170 m 1023 1170 l 1170 1170 l 1170 1023 l 1023 1023 l 1023 1170 m 292 1023 l 439 1023 l 439 877 l 292 877 l 292 1023 m 439 1023 l 585 1023 l 585 877 l 439 877 l 439 1023 m 1023 1023 l 1170 1023 l 1170 877 l 1023 877 l 1023 1023 m 292 877 l 439 877 l 439 731 l 292 731 l 292 877 m 439 877 l 585 877 l 585 731 l 439 731 l 439 877 m 585 877 l 731 877 l 731 731 l 585 731 l 585 877 m 731 877 l 877 877 l 877 731 l 731 731 l 731 877 m 877 877 l 1023 877 l 1023 731 l 877 731 l 877 877 m 292 731 l 439 731 l 439 585 l 292 585 l 292 731 m 439 731 l 585 731 l 585 585 l 439 585 l 439 731 m 731 731 l 877 731 l 877 585 l 731 585 l 731 731 m 292 585 l 439 585 l 439 439 l 292 439 l 292 585 m 439 585 l 585 585 l 585 439 l 439 439 l 439 585 m 877 585 l 1023 585 l 1023 439 l 877 439 l 877 585 m 146 439 l 292 439 l 292 292 l 146 292 l 146 439 m 292 439 l 439 439 l 439 292 l 292 292 l 292 439 m 439 439 l 585 439 l 585 292 l 439 292 l 439 439 m 585 439 l 731 439 l 731 292 l 585 292 l 585 439 m 877 439 l 1023 439 l 1023 292 l 877 292 l 877 439 m 1023 439 l 1170 439 l 1170 292 l 1023 292 l 1023 439 z "},"S":{"ha":1316,"x_min":146,"x_max":1170,"o":"m 292 1316 l 439 1316 l 439 1170 l 292 1170 l 292 1316 m 439 1316 l 585 1316 l 585 1170 l 439 1170 l 439 1316 m 585 1316 l 731 1316 l 731 1170 l 585 1170 l 585 1316 m 731 1316 l 877 1316 l 877 1170 l 731 1170 l 731 1316 m 1023 1316 l 1170 1316 l 1170 1170 l 1023 1170 l 1023 1316 m 146 1170 l 292 1170 l 292 1023 l 146 1023 l 146 1170 m 292 1170 l 439 1170 l 439 1023 l 292 1023 l 292 1170 m 877 1170 l 1023 1170 l 1023 1023 l 877 1023 l 877 1170 m 1023 1170 l 1170 1170 l 1170 1023 l 1023 1023 l 1023 1170 m 146 1023 l 292 1023 l 292 877 l 146 877 l 146 1023 m 292 1023 l 439 1023 l 439 877 l 292 877 l 292 1023 m 439 1023 l 585 1023 l 585 877 l 439 877 l 439 1023 m 292 877 l 439 877 l 439 731 l 292 731 l 292 877 m 439 877 l 585 877 l 585 731 l 439 731 l 439 877 m 585 877 l 731 877 l 731 731 l 585 731 l 585 877 m 731 877 l 877 877 l 877 731 l 731 731 l 731 877 m 877 877 l 1023 877 l 1023 731 l 877 731 l 877 877 m 731 731 l 877 731 l 877 585 l 731 585 l 731 731 m 877 731 l 1023 731 l 1023 585 l 877 585 l 877 731 m 1023 731 l 1170 731 l 1170 585 l 1023 585 l 1023 731 m 146 585 l 292 585 l 292 439 l 146 439 l 146 585 m 292 585 l 439 585 l 439 439 l 292 439 l 292 585 m 877 585 l 1023 585 l 1023 439 l 877 439 l 877 585 m 1023 585 l 1170 585 l 1170 439 l 1023 439 l 1023 585 m 146 439 l 292 439 l 292 292 l 146 292 l 146 439 m 439 439 l 585 439 l 585 292 l 439 292 l 439 439 m 585 439 l 731 439 l 731 292 l 585 292 l 585 439 m 731 439 l 877 439 l 877 292 l 731 292 l 731 439 m 877 439 l 1023 439 l 1023 292 l 877 292 l 877 439 z "},"T":{"ha":1316,"x_min":0,"x_max":1170,"o":"m 146 1316 l 292 1316 l 292 1170 l 146 1170 l 146 1316 m 292 1316 l 439 1316 l 439 1170 l 292 1170 l 292 1316 m 439 1316 l 585 1316 l 585 1170 l 439 1170 l 439 1316 m 585 1316 l 731 1316 l 731 1170 l 585 1170 l 585 1316 m 731 1316 l 877 1316 l 877 1170 l 731 1170 l 731 1316 m 877 1316 l 1023 1316 l 1023 1170 l 877 1170 l 877 1316 m 0 1170 l 146 1170 l 146 1023 l 0 1023 l 0 1170 m 439 1170 l 585 1170 l 585 1023 l 439 1023 l 439 1170 m 585 1170 l 731 1170 l 731 1023 l 585 1023 l 585 1170 m 1023 1170 l 1170 1170 l 1170 1023 l 1023 1023 l 1023 1170 m 439 1023 l 585 1023 l 585 877 l 439 877 l 439 1023 m 585 1023 l 731 1023 l 731 877 l 585 877 l 585 1023 m 439 877 l 585 877 l 585 731 l 439 731 l 439 877 m 585 877 l 731 877 l 731 731 l 585 731 l 585 877 m 439 731 l 585 731 l 585 585 l 439 585 l 439 731 m 585 731 l 731 731 l 731 585 l 585 585 l 585 731 m 439 585 l 585 585 l 585 439 l 439 439 l 439 585 m 585 585 l 731 585 l 731 439 l 585 439 l 585 585 m 292 439 l 439 439 l 439 292 l 292 292 l 292 439 m 439 439 l 585 439 l 585 292 l 439 292 l 439 439 m 585 439 l 731 439 l 731 292 l 585 292 l 585 439 m 731 439 l 877 439 l 877 292 l 731 292 l 731 439 z "},"U":{"ha":1316,"x_min":0,"x_max":1170,"o":"m 0 1316 l 146 1316 l 146 1170 l 0 1170 l 0 1316 m 146 1316 l 292 1316 l 292 1170 l 146 1170 l 146 1316 m 292 1316 l 439 1316 l 439 1170 l 292 1170 l 292 1316 m 439 1316 l 585 1316 l 585 1170 l 439 1170 l 439 1316 m 731 1316 l 877 1316 l 877 1170 l 731 1170 l 731 1316 m 877 1316 l 1023 1316 l 1023 1170 l 877 1170 l 877 1316 m 1023 1316 l 1170 1316 l 1170 1170 l 1023 1170 l 1023 1316 m 146 1170 l 292 1170 l 292 1023 l 146 1023 l 146 1170 m 292 1170 l 439 1170 l 439 1023 l 292 1023 l 292 1170 m 877 1170 l 1023 1170 l 1023 1023 l 877 1023 l 877 1170 m 146 1023 l 292 1023 l 292 877 l 146 877 l 146 1023 m 292 1023 l 439 1023 l 439 877 l 292 877 l 292 1023 m 877 1023 l 1023 1023 l 1023 877 l 877 877 l 877 1023 m 146 877 l 292 877 l 292 731 l 146 731 l 146 877 m 292 877 l 439 877 l 439 731 l 292 731 l 292 877 m 877 877 l 1023 877 l 1023 731 l 877 731 l 877 877 m 146 731 l 292 731 l 292 585 l 146 585 l 146 731 m 292 731 l 439 731 l 439 585 l 292 585 l 292 731 m 877 731 l 1023 731 l 1023 585 l 877 585 l 877 731 m 146 585 l 292 585 l 292 439 l 146 439 l 146 585 m 292 585 l 439 585 l 439 439 l 292 439 l 292 585 m 877 585 l 1023 585 l 1023 439 l 877 439 l 877 585 m 292 439 l 439 439 l 439 292 l 292 292 l 292 439 m 439 439 l 585 439 l 585 292 l 439 292 l 439 439 m 585 439 l 731 439 l 731 292 l 585 292 l 585 439 m 731 439 l 877 439 l 877 292 l 731 292 l 731 439 z "},"V":{"ha":1316,"x_min":0,"x_max":1170,"o":"m 0 1316 l 146 1316 l 146 1170 l 0 1170 l 0 1316 m 146 1316 l 292 1316 l 292 1170 l 146 1170 l 146 1316 m 292 1316 l 439 1316 l 439 1170 l 292 1170 l 292 1316 m 439 1316 l 585 1316 l 585 1170 l 439 1170 l 439 1316 m 731 1316 l 877 1316 l 877 1170 l 731 1170 l 731 1316 m 877 1316 l 1023 1316 l 1023 1170 l 877 1170 l 877 1316 m 1023 1316 l 1170 1316 l 1170 1170 l 1023 1170 l 1023 1316 m 146 1170 l 292 1170 l 292 1023 l 146 1023 l 146 1170 m 292 1170 l 439 1170 l 439 1023 l 292 1023 l 292 1170 m 877 1170 l 1023 1170 l 1023 1023 l 877 1023 l 877 1170 m 146 1023 l 292 1023 l 292 877 l 146 877 l 146 1023 m 292 1023 l 439 1023 l 439 877 l 292 877 l 292 1023 m 877 1023 l 1023 1023 l 1023 877 l 877 877 l 877 1023 m 292 877 l 439 877 l 439 731 l 292 731 l 292 877 m 439 877 l 585 877 l 585 731 l 439 731 l 439 877 m 731 877 l 877 877 l 877 731 l 731 731 l 731 877 m 292 731 l 439 731 l 439 585 l 292 585 l 292 731 m 439 731 l 585 731 l 585 585 l 439 585 l 439 731 m 731 731 l 877 731 l 877 585 l 731 585 l 731 731 m 439 585 l 585 585 l 585 439 l 439 439 l 439 585 m 585 585 l 731 585 l 731 439 l 585 439 l 585 585 m 439 439 l 585 439 l 585 292 l 439 292 l 439 439 m 585 439 l 731 439 l 731 292 l 585 292 l 585 439 z "},"W":{"ha":1316,"x_min":0,"x_max":1170,"o":"m 0 1316 l 146 1316 l 146 1170 l 0 1170 l 0 1316 m 146 1316 l 292 1316 l 292 1170 l 146 1170 l 146 1316 m 292 1316 l 439 1316 l 439 1170 l 292 1170 l 292 1316 m 439 1316 l 585 1316 l 585 1170 l 439 1170 l 439 1316 m 731 1316 l 877 1316 l 877 1170 l 731 1170 l 731 1316 m 877 1316 l 1023 1316 l 1023 1170 l 877 1170 l 877 1316 m 1023 1316 l 1170 1316 l 1170 1170 l 1023 1170 l 1023 1316 m 146 1170 l 292 1170 l 292 1023 l 146 1023 l 146 1170 m 292 1170 l 439 1170 l 439 1023 l 292 1023 l 292 1170 m 877 1170 l 1023 1170 l 1023 1023 l 877 1023 l 877 1170 m 146 1023 l 292 1023 l 292 877 l 146 877 l 146 1023 m 292 1023 l 439 1023 l 439 877 l 292 877 l 292 1023 m 585 1023 l 731 1023 l 731 877 l 585 877 l 585 1023 m 877 1023 l 1023 1023 l 1023 877 l 877 877 l 877 1023 m 146 877 l 292 877 l 292 731 l 146 731 l 146 877 m 292 877 l 439 877 l 439 731 l 292 731 l 292 877 m 585 877 l 731 877 l 731 731 l 585 731 l 585 877 m 877 877 l 1023 877 l 1023 731 l 877 731 l 877 877 m 146 731 l 292 731 l 292 585 l 146 585 l 146 731 m 292 731 l 439 731 l 439 585 l 292 585 l 292 731 m 439 731 l 585 731 l 585 585 l 439 585 l 439 731 m 585 731 l 731 731 l 731 585 l 585 585 l 585 731 m 731 731 l 877 731 l 877 585 l 731 585 l 731 731 m 877 731 l 1023 731 l 1023 585 l 877 585 l 877 731 m 292 585 l 439 585 l 439 439 l 292 439 l 292 585 m 439 585 l 585 585 l 585 439 l 439 439 l 439 585 m 731 585 l 877 585 l 877 439 l 731 439 l 731 585 m 292 439 l 439 439 l 439 292 l 292 292 l 292 439 m 439 439 l 585 439 l 585 292 l 439 292 l 439 439 m 731 439 l 877 439 l 877 292 l 731 292 l 731 439 z "},"X":{"ha":1316,"x_min":0,"x_max":1170,"o":"m 0 1316 l 146 1316 l 146 1170 l 0 1170 l 0 1316 m 146 1316 l 292 1316 l 292 1170 l 146 1170 l 146 1316 m 292 1316 l 439 1316 l 439 1170 l 292 1170 l 292 1316 m 439 1316 l 585 1316 l 585 1170 l 439 1170 l 439 1316 m 877 1316 l 1023 1316 l 1023 1170 l 877 1170 l 877 1316 m 1023 1316 l 1170 1316 l 1170 1170 l 1023 1170 l 1023 1316 m 146 1170 l 292 1170 l 292 1023 l 146 1023 l 146 1170 m 292 1170 l 439 1170 l 439 1023 l 292 1023 l 292 1170 m 877 1170 l 1023 1170 l 1023 1023 l 877 1023 l 877 1170 m 292 1023 l 439 1023 l 439 877 l 292 877 l 292 1023 m 439 1023 l 585 1023 l 585 877 l 439 877 l 439 1023 m 731 1023 l 877 1023 l 877 877 l 731 877 l 731 1023 m 439 877 l 585 877 l 585 731 l 439 731 l 439 877 m 585 877 l 731 877 l 731 731 l 585 731 l 585 877 m 292 731 l 439 731 l 439 585 l 292 585 l 292 731 m 585 731 l 731 731 l 731 585 l 585 585 l 585 731 m 731 731 l 877 731 l 877 585 l 731 585 l 731 731 m 146 585 l 292 585 l 292 439 l 146 439 l 146 585 m 731 585 l 877 585 l 877 439 l 731 439 l 731 585 m 877 585 l 1023 585 l 1023 439 l 877 439 l 877 585 m 0 439 l 146 439 l 146 292 l 0 292 l 0 439 m 146 439 l 292 439 l 292 292 l 146 292 l 146 439 m 585 439 l 731 439 l 731 292 l 585 292 l 585 439 m 731 439 l 877 439 l 877 292 l 731 292 l 731 439 m 877 439 l 1023 439 l 1023 292 l 877 292 l 877 439 m 1023 439 l 1170 439 l 1170 292 l 1023 292 l 1023 439 z "},"Y":{"ha":1316,"x_min":0,"x_max":1170,"o":"m 0 1316 l 146 1316 l 146 1170 l 0 1170 l 0 1316 m 146 1316 l 292 1316 l 292 1170 l 146 1170 l 146 1316 m 292 1316 l 439 1316 l 439 1170 l 292 1170 l 292 1316 m 439 1316 l 585 1316 l 585 1170 l 439 1170 l 439 1316 m 731 1316 l 877 1316 l 877 1170 l 731 1170 l 731 1316 m 877 1316 l 1023 1316 l 1023 1170 l 877 1170 l 877 1316 m 1023 1316 l 1170 1316 l 1170 1170 l 1023 1170 l 1023 1316 m 146 1170 l 292 1170 l 292 1023 l 146 1023 l 146 1170 m 292 1170 l 439 1170 l 439 1023 l 292 1023 l 292 1170 m 877 1170 l 1023 1170 l 1023 1023 l 877 1023 l 877 1170 m 292 1023 l 439 1023 l 439 877 l 292 877 l 292 1023 m 439 1023 l 585 1023 l 585 877 l 439 877 l 439 1023 m 731 1023 l 877 1023 l 877 877 l 731 877 l 731 1023 m 439 877 l 585 877 l 585 731 l 439 731 l 439 877 m 585 877 l 731 877 l 731 731 l 585 731 l 585 877 m 439 731 l 585 731 l 585 585 l 439 585 l 439 731 m 585 731 l 731 731 l 731 585 l 585 585 l 585 731 m 439 585 l 585 585 l 585 439 l 439 439 l 439 585 m 585 585 l 731 585 l 731 439 l 585 439 l 585 585 m 292 439 l 439 439 l 439 292 l 292 292 l 292 439 m 439 439 l 585 439 l 585 292 l 439 292 l 439 439 m 585 439 l 731 439 l 731 292 l 585 292 l 585 439 m 731 439 l 877 439 l 877 292 l 731 292 l 731 439 z "},"Z":{"ha":1316,"x_min":146,"x_max":1170,"o":"m 292 1316 l 439 1316 l 439 1170 l 292 1170 l 292 1316 m 439 1316 l 585 1316 l 585 1170 l 439 1170 l 439 1316 m 585 1316 l 731 1316 l 731 1170 l 585 1170 l 585 1316 m 731 1316 l 877 1316 l 877 1170 l 731 1170 l 731 1316 m 877 1316 l 1023 1316 l 1023 1170 l 877 1170 l 877 1316 m 1023 1316 l 1170 1316 l 1170 1170 l 1023 1170 l 1023 1316 m 146 1170 l 292 1170 l 292 1023 l 146 1023 l 146 1170 m 731 1170 l 877 1170 l 877 1023 l 731 1023 l 731 1170 m 877 1170 l 1023 1170 l 1023 1023 l 877 1023 l 877 1170 m 1023 1170 l 1170 1170 l 1170 1023 l 1023 1023 l 1023 1170 m 585 1023 l 731 1023 l 731 877 l 585 877 l 585 1023 m 731 1023 l 877 1023 l 877 877 l 731 877 l 731 1023 m 877 1023 l 1023 1023 l 1023 877 l 877 877 l 877 1023 m 439 877 l 585 877 l 585 731 l 439 731 l 439 877 m 585 877 l 731 877 l 731 731 l 585 731 l 585 877 m 731 877 l 877 877 l 877 731 l 731 731 l 731 877 m 292 731 l 439 731 l 439 585 l 292 585 l 292 731 m 439 731 l 585 731 l 585 585 l 439 585 l 439 731 m 585 731 l 731 731 l 731 585 l 585 585 l 585 731 m 146 585 l 292 585 l 292 439 l 146 439 l 146 585 m 292 585 l 439 585 l 439 439 l 292 439 l 292 585 m 439 585 l 585 585 l 585 439 l 439 439 l 439 585 m 1023 585 l 1170 585 l 1170 439 l 1023 439 l 1023 585 m 146 439 l 292 439 l 292 292 l 146 292 l 146 439 m 292 439 l 439 439 l 439 292 l 292 292 l 292 439 m 439 439 l 585 439 l 585 292 l 439 292 l 439 439 m 585 439 l 731 439 l 731 292 l 585 292 l 585 439 m 731 439 l 877 439 l 877 292 l 731 292 l 731 439 m 877 439 l 1023 439 l 1023 292 l 877 292 l 877 439 m 1023 439 l 1170 439 l 1170 292 l 1023 292 l 1023 439 z "},"[":{"ha":731,"x_min":292,"x_max":585,"o":"m 292 1316 l 439 1316 l 439 1170 l 292 1170 l 292 1316 m 439 1316 l 585 1316 l 585 1170 l 439 1170 l 439 1316 m 292 1170 l 439 1170 l 439 1023 l 292 1023 l 292 1170 m 292 1023 l 439 1023 l 439 877 l 292 877 l 292 1023 m 292 877 l 439 877 l 439 731 l 292 731 l 292 877 m 292 731 l 439 731 l 439 585 l 292 585 l 292 731 m 292 585 l 439 585 l 439 439 l 292 439 l 292 585 m 292 439 l 439 439 l 439 292 l 292 292 l 292 439 m 439 439 l 585 439 l 585 292 l 439 292 l 439 439 z "},"\\":{"ha":1170,"x_min":0,"x_max":1023,"o":"m 0 1316 l 146 1316 l 146 1170 l 0 1170 l 0 1316 m 146 1170 l 292 1170 l 292 1023 l 146 1023 l 146 1170 m 292 1023 l 439 1023 l 439 877 l 292 877 l 292 1023 m 439 877 l 585 877 l 585 731 l 439 731 l 439 877 m 585 731 l 731 731 l 731 585 l 585 585 l 585 731 m 731 585 l 877 585 l 877 439 l 731 439 l 731 585 m 877 439 l 1023 439 l 1023 292 l 877 292 l 877 439 z "},"]":{"ha":731,"x_min":292,"x_max":585,"o":"m 292 1316 l 439 1316 l 439 1170 l 292 1170 l 292 1316 m 439 1316 l 585 1316 l 585 1170 l 439 1170 l 439 1316 m 439 1170 l 585 1170 l 585 1023 l 439 1023 l 439 1170 m 439 1023 l 585 1023 l 585 877 l 439 877 l 439 1023 m 439 877 l 585 877 l 585 731 l 439 731 l 439 877 m 439 731 l 585 731 l 585 585 l 439 585 l 439 731 m 439 585 l 585 585 l 585 439 l 439 439 l 439 585 m 292 439 l 439 439 l 439 292 l 292 292 l 292 439 m 439 439 l 585 439 l 585 292 l 439 292 l 439 439 z "},"^":{"ha":1170,"x_min":0,"x_max":1023,"o":"m 439 1316 l 585 1316 l 585 1170 l 439 1170 l 439 1316 m 292 1170 l 439 1170 l 439 1023 l 292 1023 l 292 1170 m 585 1170 l 731 1170 l 731 1023 l 585 1023 l 585 1170 m 146 1023 l 292 1023 l 292 877 l 146 877 l 146 1023 m 731 1023 l 877 1023 l 877 877 l 731 877 l 731 1023 m 0 877 l 146 877 l 146 731 l 0 731 l 0 877 m 877 877 l 1023 877 l 1023 731 l 877 731 l 877 877 z "},"_":{"ha":1170,"x_min":0,"x_max":1023,"o":"m 0 439 l 146 439 l 146 292 l 0 292 l 0 439 m 146 439 l 292 439 l 292 292 l 146 292 l 146 439 m 292 439 l 439 439 l 439 292 l 292 292 l 292 439 m 439 439 l 585 439 l 585 292 l 439 292 l 439 439 m 585 439 l 731 439 l 731 292 l 585 292 l 585 439 m 731 439 l 877 439 l 877 292 l 731 292 l 731 439 m 877 439 l 1023 439 l 1023 292 l 877 292 l 877 439 z "},"`":{"ha":877,"x_min":439,"x_max":731,"o":"m 439 1316 l 585 1316 l 585 1170 l 439 1170 l 439 1316 m 585 1316 l 731 1316 l 731 1170 l 585 1170 l 585 1316 m 439 1170 l 585 1170 l 585 1023 l 439 1023 l 439 1170 m 585 1023 l 731 1023 l 731 877 l 585 877 l 585 1023 z "},"a":{"ha":1170,"x_min":146,"x_max":1023,"o":"m 292 1023 l 439 1023 l 439 877 l 292 877 l 292 1023 m 439 1023 l 585 1023 l 585 877 l 439 877 l 439 1023 m 585 1023 l 731 1023 l 731 877 l 585 877 l 585 1023 m 585 877 l 731 877 l 731 731 l 585 731 l 585 877 m 731 877 l 877 877 l 877 731 l 731 731 l 731 877 m 292 731 l 439 731 l 439 585 l 292 585 l 292 731 m 439 731 l 585 731 l 585 585 l 439 585 l 439 731 m 585 731 l 731 731 l 731 585 l 585 585 l 585 731 m 731 731 l 877 731 l 877 585 l 731 585 l 731 731 m 146 585 l 292 585 l 292 439 l 146 439 l 146 585 m 585 585 l 731 585 l 731 439 l 585 439 l 585 585 m 731 585 l 877 585 l 877 439 l 731 439 l 731 585 m 292 439 l 439 439 l 439 292 l 292 292 l 292 439 m 439 439 l 585 439 l 585 292 l 439 292 l 439 439 m 585 439 l 731 439 l 731 292 l 585 292 l 585 439 m 731 439 l 877 439 l 877 292 l 731 292 l 731 439 m 877 439 l 1023 439 l 1023 292 l 877 292 l 877 439 z "},"b":{"ha":1023,"x_min":146,"x_max":877,"o":"m 146 1316 l 292 1316 l 292 1170 l 146 1170 l 146 1316 m 292 1316 l 439 1316 l 439 1170 l 292 1170 l 292 1316 m 146 1170 l 292 1170 l 292 1023 l 146 1023 l 146 1170 m 292 1170 l 439 1170 l 439 1023 l 292 1023 l 292 1170 m 146 1023 l 292 1023 l 292 877 l 146 877 l 146 1023 m 292 1023 l 439 1023 l 439 877 l 292 877 l 292 1023 m 146 877 l 292 877 l 292 731 l 146 731 l 146 877 m 292 877 l 439 877 l 439 731 l 292 731 l 292 877 m 439 877 l 585 877 l 585 731 l 439 731 l 439 877 m 585 877 l 731 877 l 731 731 l 585 731 l 585 877 m 146 731 l 292 731 l 292 585 l 146 585 l 146 731 m 292 731 l 439 731 l 439 585 l 292 585 l 292 731 m 731 731 l 877 731 l 877 585 l 731 585 l 731 731 m 146 585 l 292 585 l 292 439 l 146 439 l 146 585 m 292 585 l 439 585 l 439 439 l 292 439 l 292 585 m 731 585 l 877 585 l 877 439 l 731 439 l 731 585 m 146 439 l 292 439 l 292 292 l 146 292 l 146 439 m 292 439 l 439 439 l 439 292 l 292 292 l 292 439 m 439 439 l 585 439 l 585 292 l 439 292 l 439 439 m 585 439 l 731 439 l 731 292 l 585 292 l 585 439 z "},"c":{"ha":1023,"x_min":146,"x_max":877,"o":"m 292 1023 l 439 1023 l 439 877 l 292 877 l 292 1023 m 439 1023 l 585 1023 l 585 877 l 439 877 l 439 1023 m 585 1023 l 731 1023 l 731 877 l 585 877 l 585 1023 m 146 877 l 292 877 l 292 731 l 146 731 l 146 877 m 292 877 l 439 877 l 439 731 l 292 731 l 292 877 m 731 877 l 877 877 l 877 731 l 731 731 l 731 877 m 146 731 l 292 731 l 292 585 l 146 585 l 146 731 m 292 731 l 439 731 l 439 585 l 292 585 l 292 731 m 146 585 l 292 585 l 292 439 l 146 439 l 146 585 m 292 585 l 439 585 l 439 439 l 292 439 l 292 585 m 731 585 l 877 585 l 877 439 l 731 439 l 731 585 m 292 439 l 439 439 l 439 292 l 292 292 l 292 439 m 439 439 l 585 439 l 585 292 l 439 292 l 439 439 m 585 439 l 731 439 l 731 292 l 585 292 l 585 439 z "},"d":{"ha":1023,"x_min":146,"x_max":877,"o":"m 585 1316 l 731 1316 l 731 1170 l 585 1170 l 585 1316 m 731 1316 l 877 1316 l 877 1170 l 731 1170 l 731 1316 m 585 1170 l 731 1170 l 731 1023 l 585 1023 l 585 1170 m 731 1170 l 877 1170 l 877 1023 l 731 1023 l 731 1170 m 585 1023 l 731 1023 l 731 877 l 585 877 l 585 1023 m 731 1023 l 877 1023 l 877 877 l 731 877 l 731 1023 m 292 877 l 439 877 l 439 731 l 292 731 l 292 877 m 439 877 l 585 877 l 585 731 l 439 731 l 439 877 m 585 877 l 731 877 l 731 731 l 585 731 l 585 877 m 731 877 l 877 877 l 877 731 l 731 731 l 731 877 m 146 731 l 292 731 l 292 585 l 146 585 l 146 731 m 585 731 l 731 731 l 731 585 l 585 585 l 585 731 m 731 731 l 877 731 l 877 585 l 731 585 l 731 731 m 146 585 l 292 585 l 292 439 l 146 439 l 146 585 m 585 585 l 731 585 l 731 439 l 585 439 l 585 585 m 731 585 l 877 585 l 877 439 l 731 439 l 731 585 m 292 439 l 439 439 l 439 292 l 292 292 l 292 439 m 439 439 l 585 439 l 585 292 l 439 292 l 439 439 m 585 439 l 731 439 l 731 292 l 585 292 l 585 439 m 731 439 l 877 439 l 877 292 l 731 292 l 731 439 z "},"e":{"ha":1023,"x_min":146,"x_max":877,"o":"m 292 1023 l 439 1023 l 439 877 l 292 877 l 292 1023 m 439 1023 l 585 1023 l 585 877 l 439 877 l 439 1023 m 585 1023 l 731 1023 l 731 877 l 585 877 l 585 1023 m 146 877 l 292 877 l 292 731 l 146 731 l 146 877 m 292 877 l 439 877 l 439 731 l 292 731 l 292 877 m 731 877 l 877 877 l 877 731 l 731 731 l 731 877 m 146 731 l 292 731 l 292 585 l 146 585 l 146 731 m 292 731 l 439 731 l 439 585 l 292 585 l 292 731 m 439 731 l 585 731 l 585 585 l 439 585 l 439 731 m 585 731 l 731 731 l 731 585 l 585 585 l 585 731 m 731 731 l 877 731 l 877 585 l 731 585 l 731 731 m 146 585 l 292 585 l 292 439 l 146 439 l 146 585 m 292 585 l 439 585 l 439 439 l 292 439 l 292 585 m 292 439 l 439 439 l 439 292 l 292 292 l 292 439 m 439 439 l 585 439 l 585 292 l 439 292 l 439 439 m 585 439 l 731 439 l 731 292 l 585 292 l 585 439 m 731 439 l 877 439 l 877 292 l 731 292 l 731 439 z "},"f":{"ha":877,"x_min":146,"x_max":731,"o":"m 439 1316 l 585 1316 l 585 1170 l 439 1170 l 439 1316 m 585 1316 l 731 1316 l 731 1170 l 585 1170 l 585 1316 m 292 1170 l 439 1170 l 439 1023 l 292 1023 l 292 1170 m 439 1170 l 585 1170 l 585 1023 l 439 1023 l 439 1170 m 292 1023 l 439 1023 l 439 877 l 292 877 l 292 1023 m 439 1023 l 585 1023 l 585 877 l 439 877 l 439 1023 m 146 877 l 292 877 l 292 731 l 146 731 l 146 877 m 292 877 l 439 877 l 439 731 l 292 731 l 292 877 m 439 877 l 585 877 l 585 731 l 439 731 l 439 877 m 585 877 l 731 877 l 731 731 l 585 731 l 585 877 m 292 731 l 439 731 l 439 585 l 292 585 l 292 731 m 439 731 l 585 731 l 585 585 l 439 585 l 439 731 m 292 585 l 439 585 l 439 439 l 292 439 l 292 585 m 439 585 l 585 585 l 585 439 l 439 439 l 439 585 m 292 439 l 439 439 l 439 292 l 292 292 l 292 439 m 439 439 l 585 439 l 585 292 l 439 292 l 439 439 z "},"g":{"ha":1023,"x_min":146,"x_max":877,"o":"m 292 1023 l 439 1023 l 439 877 l 292 877 l 292 1023 m 439 1023 l 585 1023 l 585 877 l 439 877 l 439 1023 m 585 1023 l 731 1023 l 731 877 l 585 877 l 585 1023 m 146 877 l 292 877 l 292 731 l 146 731 l 146 877 m 585 877 l 731 877 l 731 731 l 585 731 l 585 877 m 731 877 l 877 877 l 877 731 l 731 731 l 731 877 m 146 731 l 292 731 l 292 585 l 146 585 l 146 731 m 585 731 l 731 731 l 731 585 l 585 585 l 585 731 m 731 731 l 877 731 l 877 585 l 731 585 l 731 731 m 292 585 l 439 585 l 439 439 l 292 439 l 292 585 m 439 585 l 585 585 l 585 439 l 439 439 l 439 585 m 585 585 l 731 585 l 731 439 l 585 439 l 585 585 m 731 585 l 877 585 l 877 439 l 731 439 l 731 585 m 585 439 l 731 439 l 731 292 l 585 292 l 585 439 m 731 439 l 877 439 l 877 292 l 731 292 l 731 439 m 146 292 l 292 292 l 292 146 l 146 146 l 146 292 m 292 292 l 439 292 l 439 146 l 292 146 l 292 292 m 439 292 l 585 292 l 585 146 l 439 146 l 439 292 m 585 292 l 731 292 l 731 146 l 585 146 l 585 292 z "},"h":{"ha":1023,"x_min":146,"x_max":877,"o":"m 146 1316 l 292 1316 l 292 1170 l 146 1170 l 146 1316 m 292 1316 l 439 1316 l 439 1170 l 292 1170 l 292 1316 m 146 1170 l 292 1170 l 292 1023 l 146 1023 l 146 1170 m 292 1170 l 439 1170 l 439 1023 l 292 1023 l 292 1170 m 146 1023 l 292 1023 l 292 877 l 146 877 l 146 1023 m 292 1023 l 439 1023 l 439 877 l 292 877 l 292 1023 m 146 877 l 292 877 l 292 731 l 146 731 l 146 877 m 292 877 l 439 877 l 439 731 l 292 731 l 292 877 m 439 877 l 585 877 l 585 731 l 439 731 l 439 877 m 585 877 l 731 877 l 731 731 l 585 731 l 585 877 m 146 731 l 292 731 l 292 585 l 146 585 l 146 731 m 292 731 l 439 731 l 439 585 l 292 585 l 292 731 m 731 731 l 877 731 l 877 585 l 731 585 l 731 731 m 146 585 l 292 585 l 292 439 l 146 439 l 146 585 m 292 585 l 439 585 l 439 439 l 292 439 l 292 585 m 731 585 l 877 585 l 877 439 l 731 439 l 731 585 m 146 439 l 292 439 l 292 292 l 146 292 l 146 439 m 292 439 l 439 439 l 439 292 l 292 292 l 292 439 m 731 439 l 877 439 l 877 292 l 731 292 l 731 439 z "},"i":{"ha":877,"x_min":439,"x_max":731,"o":"m 439 1170 l 585 1170 l 585 1023 l 439 1023 l 439 1170 m 585 1170 l 731 1170 l 731 1023 l 585 1023 l 585 1170 m 439 877 l 585 877 l 585 731 l 439 731 l 439 877 m 585 877 l 731 877 l 731 731 l 585 731 l 585 877 m 439 731 l 585 731 l 585 585 l 439 585 l 439 731 m 585 731 l 731 731 l 731 585 l 585 585 l 585 731 m 439 585 l 585 585 l 585 439 l 439 439 l 439 585 m 585 585 l 731 585 l 731 439 l 585 439 l 585 585 m 439 439 l 585 439 l 585 292 l 439 292 l 439 439 m 585 439 l 731 439 l 731 292 l 585 292 l 585 439 z "},"j":{"ha":877,"x_min":292,"x_max":731,"o":"m 439 1170 l 585 1170 l 585 1023 l 439 1023 l 439 1170 m 585 1170 l 731 1170 l 731 1023 l 585 1023 l 585 1170 m 439 877 l 585 877 l 585 731 l 439 731 l 439 877 m 585 877 l 731 877 l 731 731 l 585 731 l 585 877 m 439 731 l 585 731 l 585 585 l 439 585 l 439 731 m 585 731 l 731 731 l 731 585 l 585 585 l 585 731 m 439 585 l 585 585 l 585 439 l 439 439 l 439 585 m 585 585 l 731 585 l 731 439 l 585 439 l 585 585 m 439 439 l 585 439 l 585 292 l 439 292 l 439 439 m 585 439 l 731 439 l 731 292 l 585 292 l 585 439 m 292 292 l 439 292 l 439 146 l 292 146 l 292 292 m 439 292 l 585 292 l 585 146 l 439 146 l 439 292 z "},"k":{"ha":1023,"x_min":146,"x_max":877,"o":"m 146 1316 l 292 1316 l 292 1170 l 146 1170 l 146 1316 m 292 1316 l 439 1316 l 439 1170 l 292 1170 l 292 1316 m 146 1170 l 292 1170 l 292 1023 l 146 1023 l 146 1170 m 292 1170 l 439 1170 l 439 1023 l 292 1023 l 292 1170 m 146 1023 l 292 1023 l 292 877 l 146 877 l 146 1023 m 292 1023 l 439 1023 l 439 877 l 292 877 l 292 1023 m 731 1023 l 877 1023 l 877 877 l 731 877 l 731 1023 m 146 877 l 292 877 l 292 731 l 146 731 l 146 877 m 292 877 l 439 877 l 439 731 l 292 731 l 292 877 m 439 877 l 585 877 l 585 731 l 439 731 l 439 877 m 585 877 l 731 877 l 731 731 l 585 731 l 585 877 m 146 731 l 292 731 l 292 585 l 146 585 l 146 731 m 292 731 l 439 731 l 439 585 l 292 585 l 292 731 m 146 585 l 292 585 l 292 439 l 146 439 l 146 585 m 292 585 l 439 585 l 439 439 l 292 439 l 292 585 m 439 585 l 585 585 l 585 439 l 439 439 l 439 585 m 146 439 l 292 439 l 292 292 l 146 292 l 146 439 m 292 439 l 439 439 l 439 292 l 292 292 l 292 439 m 585 439 l 731 439 l 731 292 l 585 292 l 585 439 m 731 439 l 877 439 l 877 292 l 731 292 l 731 439 z "},"l":{"ha":877,"x_min":292,"x_max":731,"o":"m 292 1316 l 439 1316 l 439 1170 l 292 1170 l 292 1316 m 439 1316 l 585 1316 l 585 1170 l 439 1170 l 439 1316 m 292 1170 l 439 1170 l 439 1023 l 292 1023 l 292 1170 m 439 1170 l 585 1170 l 585 1023 l 439 1023 l 439 1170 m 292 1023 l 439 1023 l 439 877 l 292 877 l 292 1023 m 439 1023 l 585 1023 l 585 877 l 439 877 l 439 1023 m 292 877 l 439 877 l 439 731 l 292 731 l 292 877 m 439 877 l 585 877 l 585 731 l 439 731 l 439 877 m 292 731 l 439 731 l 439 585 l 292 585 l 292 731 m 439 731 l 585 731 l 585 585 l 439 585 l 439 731 m 292 585 l 439 585 l 439 439 l 292 439 l 292 585 m 439 585 l 585 585 l 585 439 l 439 439 l 439 585 m 439 439 l 585 439 l 585 292 l 439 292 l 439 439 m 585 439 l 731 439 l 731 292 l 585 292 l 585 439 z "},"m":{"ha":1170,"x_min":0,"x_max":1023,"o":"m 0 1023 l 146 1023 l 146 877 l 0 877 l 0 1023 m 146 1023 l 292 1023 l 292 877 l 146 877 l 146 1023 m 292 1023 l 439 1023 l 439 877 l 292 877 l 292 1023 m 585 1023 l 731 1023 l 731 877 l 585 877 l 585 1023 m 731 1023 l 877 1023 l 877 877 l 731 877 l 731 1023 m 0 877 l 146 877 l 146 731 l 0 731 l 0 877 m 146 877 l 292 877 l 292 731 l 146 731 l 146 877 m 439 877 l 585 877 l 585 731 l 439 731 l 439 877 m 877 877 l 1023 877 l 1023 731 l 877 731 l 877 877 m 0 731 l 146 731 l 146 585 l 0 585 l 0 731 m 146 731 l 292 731 l 292 585 l 146 585 l 146 731 m 439 731 l 585 731 l 585 585 l 439 585 l 439 731 m 877 731 l 1023 731 l 1023 585 l 877 585 l 877 731 m 0 585 l 146 585 l 146 439 l 0 439 l 0 585 m 146 585 l 292 585 l 292 439 l 146 439 l 146 585 m 439 585 l 585 585 l 585 439 l 439 439 l 439 585 m 877 585 l 1023 585 l 1023 439 l 877 439 l 877 585 m 0 439 l 146 439 l 146 292 l 0 292 l 0 439 m 146 439 l 292 439 l 292 292 l 146 292 l 146 439 m 439 439 l 585 439 l 585 292 l 439 292 l 439 439 m 877 439 l 1023 439 l 1023 292 l 877 292 l 877 439 z "},"n":{"ha":1023,"x_min":146,"x_max":877,"o":"m 146 1023 l 292 1023 l 292 877 l 146 877 l 146 1023 m 292 1023 l 439 1023 l 439 877 l 292 877 l 292 1023 m 439 1023 l 585 1023 l 585 877 l 439 877 l 439 1023 m 585 1023 l 731 1023 l 731 877 l 585 877 l 585 1023 m 146 877 l 292 877 l 292 731 l 146 731 l 146 877 m 292 877 l 439 877 l 439 731 l 292 731 l 292 877 m 731 877 l 877 877 l 877 731 l 731 731 l 731 877 m 146 731 l 292 731 l 292 585 l 146 585 l 146 731 m 292 731 l 439 731 l 439 585 l 292 585 l 292 731 m 731 731 l 877 731 l 877 585 l 731 585 l 731 731 m 146 585 l 292 585 l 292 439 l 146 439 l 146 585 m 292 585 l 439 585 l 439 439 l 292 439 l 292 585 m 731 585 l 877 585 l 877 439 l 731 439 l 731 585 m 146 439 l 292 439 l 292 292 l 146 292 l 146 439 m 292 439 l 439 439 l 439 292 l 292 292 l 292 439 m 731 439 l 877 439 l 877 292 l 731 292 l 731 439 z "},"o":{"ha":1023,"x_min":146,"x_max":877,"o":"m 292 1023 l 439 1023 l 439 877 l 292 877 l 292 1023 m 439 1023 l 585 1023 l 585 877 l 439 877 l 439 1023 m 585 1023 l 731 1023 l 731 877 l 585 877 l 585 1023 m 146 877 l 292 877 l 292 731 l 146 731 l 146 877 m 292 877 l 439 877 l 439 731 l 292 731 l 292 877 m 731 877 l 877 877 l 877 731 l 731 731 l 731 877 m 146 731 l 292 731 l 292 585 l 146 585 l 146 731 m 292 731 l 439 731 l 439 585 l 292 585 l 292 731 m 731 731 l 877 731 l 877 585 l 731 585 l 731 731 m 146 585 l 292 585 l 292 439 l 146 439 l 146 585 m 292 585 l 439 585 l 439 439 l 292 439 l 292 585 m 731 585 l 877 585 l 877 439 l 731 439 l 731 585 m 292 439 l 439 439 l 439 292 l 292 292 l 292 439 m 439 439 l 585 439 l 585 292 l 439 292 l 439 439 m 585 439 l 731 439 l 731 292 l 585 292 l 585 439 z "},"p":{"ha":1023,"x_min":146,"x_max":877,"o":"m 146 1023 l 292 1023 l 292 877 l 146 877 l 146 1023 m 292 1023 l 439 1023 l 439 877 l 292 877 l 292 1023 m 439 1023 l 585 1023 l 585 877 l 439 877 l 439 1023 m 585 1023 l 731 1023 l 731 877 l 585 877 l 585 1023 m 146 877 l 292 877 l 292 731 l 146 731 l 146 877 m 292 877 l 439 877 l 439 731 l 292 731 l 292 877 m 731 877 l 877 877 l 877 731 l 731 731 l 731 877 m 146 731 l 292 731 l 292 585 l 146 585 l 146 731 m 292 731 l 439 731 l 439 585 l 292 585 l 292 731 m 731 731 l 877 731 l 877 585 l 731 585 l 731 731 m 146 585 l 292 585 l 292 439 l 146 439 l 146 585 m 292 585 l 439 585 l 439 439 l 292 439 l 292 585 m 439 585 l 585 585 l 585 439 l 439 439 l 439 585 m 585 585 l 731 585 l 731 439 l 585 439 l 585 585 m 146 439 l 292 439 l 292 292 l 146 292 l 146 439 m 292 439 l 439 439 l 439 292 l 292 292 l 292 439 m 146 292 l 292 292 l 292 146 l 146 146 l 146 292 m 292 292 l 439 292 l 439 146 l 292 146 l 292 292 z "},"q":{"ha":1170,"x_min":146,"x_max":1023,"o":"m 292 1023 l 439 1023 l 439 877 l 292 877 l 292 1023 m 439 1023 l 585 1023 l 585 877 l 439 877 l 439 1023 m 585 1023 l 731 1023 l 731 877 l 585 877 l 585 1023 m 731 1023 l 877 1023 l 877 877 l 731 877 l 731 1023 m 146 877 l 292 877 l 292 731 l 146 731 l 146 877 m 585 877 l 731 877 l 731 731 l 585 731 l 585 877 m 731 877 l 877 877 l 877 731 l 731 731 l 731 877 m 146 731 l 292 731 l 292 585 l 146 585 l 146 731 m 585 731 l 731 731 l 731 585 l 585 585 l 585 731 m 731 731 l 877 731 l 877 585 l 731 585 l 731 731 m 292 585 l 439 585 l 439 439 l 292 439 l 292 585 m 439 585 l 585 585 l 585 439 l 439 439 l 439 585 m 585 585 l 731 585 l 731 439 l 585 439 l 585 585 m 731 585 l 877 585 l 877 439 l 731 439 l 731 585 m 585 439 l 731 439 l 731 292 l 585 292 l 585 439 m 731 439 l 877 439 l 877 292 l 731 292 l 731 439 m 585 292 l 731 292 l 731 146 l 585 146 l 585 292 m 731 292 l 877 292 l 877 146 l 731 146 l 731 292 m 877 292 l 1023 292 l 1023 146 l 877 146 l 877 292 z "},"r":{"ha":1023,"x_min":146,"x_max":877,"o":"m 146 1023 l 292 1023 l 292 877 l 146 877 l 146 1023 m 292 1023 l 439 1023 l 439 877 l 292 877 l 292 1023 m 585 1023 l 731 1023 l 731 877 l 585 877 l 585 1023 m 731 1023 l 877 1023 l 877 877 l 731 877 l 731 1023 m 146 877 l 292 877 l 292 731 l 146 731 l 146 877 m 292 877 l 439 877 l 439 731 l 292 731 l 292 877 m 439 877 l 585 877 l 585 731 l 439 731 l 439 877 m 146 731 l 292 731 l 292 585 l 146 585 l 146 731 m 292 731 l 439 731 l 439 585 l 292 585 l 292 731 m 146 585 l 292 585 l 292 439 l 146 439 l 146 585 m 292 585 l 439 585 l 439 439 l 292 439 l 292 585 m 146 439 l 292 439 l 292 292 l 146 292 l 146 439 m 292 439 l 439 439 l 439 292 l 292 292 l 292 439 z "},"s":{"ha":1023,"x_min":146,"x_max":877,"o":"m 292 1023 l 439 1023 l 439 877 l 292 877 l 292 1023 m 439 1023 l 585 1023 l 585 877 l 439 877 l 439 1023 m 585 1023 l 731 1023 l 731 877 l 585 877 l 585 1023 m 731 1023 l 877 1023 l 877 877 l 731 877 l 731 1023 m 146 877 l 292 877 l 292 731 l 146 731 l 146 877 m 292 877 l 439 877 l 439 731 l 292 731 l 292 877 m 292 731 l 439 731 l 439 585 l 292 585 l 292 731 m 439 731 l 585 731 l 585 585 l 439 585 l 439 731 m 585 731 l 731 731 l 731 585 l 585 585 l 585 731 m 585 585 l 731 585 l 731 439 l 585 439 l 585 585 m 731 585 l 877 585 l 877 439 l 731 439 l 731 585 m 146 439 l 292 439 l 292 292 l 146 292 l 146 439 m 292 439 l 439 439 l 439 292 l 292 292 l 292 439 m 439 439 l 585 439 l 585 292 l 439 292 l 439 439 m 585 439 l 731 439 l 731 292 l 585 292 l 585 439 z "},"t":{"ha":877,"x_min":146,"x_max":731,"o":"m 292 1170 l 439 1170 l 439 1023 l 292 1023 l 292 1170 m 439 1170 l 585 1170 l 585 1023 l 439 1023 l 439 1170 m 146 1023 l 292 1023 l 292 877 l 146 877 l 146 1023 m 292 1023 l 439 1023 l 439 877 l 292 877 l 292 1023 m 439 1023 l 585 1023 l 585 877 l 439 877 l 439 1023 m 585 1023 l 731 1023 l 731 877 l 585 877 l 585 1023 m 292 877 l 439 877 l 439 731 l 292 731 l 292 877 m 439 877 l 585 877 l 585 731 l 439 731 l 439 877 m 292 731 l 439 731 l 439 585 l 292 585 l 292 731 m 439 731 l 585 731 l 585 585 l 439 585 l 439 731 m 292 585 l 439 585 l 439 439 l 292 439 l 292 585 m 439 585 l 585 585 l 585 439 l 439 439 l 439 585 m 439 439 l 585 439 l 585 292 l 439 292 l 439 439 m 585 439 l 731 439 l 731 292 l 585 292 l 585 439 z "},"u":{"ha":1170,"x_min":146,"x_max":1023,"o":"m 146 1023 l 292 1023 l 292 877 l 146 877 l 146 1023 m 292 1023 l 439 1023 l 439 877 l 292 877 l 292 1023 m 731 1023 l 877 1023 l 877 877 l 731 877 l 731 1023 m 146 877 l 292 877 l 292 731 l 146 731 l 146 877 m 292 877 l 439 877 l 439 731 l 292 731 l 292 877 m 731 877 l 877 877 l 877 731 l 731 731 l 731 877 m 146 731 l 292 731 l 292 585 l 146 585 l 146 731 m 292 731 l 439 731 l 439 585 l 292 585 l 292 731 m 731 731 l 877 731 l 877 585 l 731 585 l 731 731 m 146 585 l 292 585 l 292 439 l 146 439 l 146 585 m 292 585 l 439 585 l 439 439 l 292 439 l 292 585 m 731 585 l 877 585 l 877 439 l 731 439 l 731 585 m 292 439 l 439 439 l 439 292 l 292 292 l 292 439 m 439 439 l 585 439 l 585 292 l 439 292 l 439 439 m 585 439 l 731 439 l 731 292 l 585 292 l 585 439 m 877 439 l 1023 439 l 1023 292 l 877 292 l 877 439 z "},"v":{"ha":1023,"x_min":146,"x_max":877,"o":"m 146 1023 l 292 1023 l 292 877 l 146 877 l 146 1023 m 292 1023 l 439 1023 l 439 877 l 292 877 l 292 1023 m 731 1023 l 877 1023 l 877 877 l 731 877 l 731 1023 m 146 877 l 292 877 l 292 731 l 146 731 l 146 877 m 292 877 l 439 877 l 439 731 l 292 731 l 292 877 m 731 877 l 877 877 l 877 731 l 731 731 l 731 877 m 146 731 l 292 731 l 292 585 l 146 585 l 146 731 m 292 731 l 439 731 l 439 585 l 292 585 l 292 731 m 731 731 l 877 731 l 877 585 l 731 585 l 731 731 m 292 585 l 439 585 l 439 439 l 292 439 l 292 585 m 585 585 l 731 585 l 731 439 l 585 439 l 585 585 m 439 439 l 585 439 l 585 292 l 439 292 l 439 439 z "},"w":{"ha":1170,"x_min":0,"x_max":1023,"o":"m 0 1023 l 146 1023 l 146 877 l 0 877 l 0 1023 m 146 1023 l 292 1023 l 292 877 l 146 877 l 146 1023 m 439 1023 l 585 1023 l 585 877 l 439 877 l 439 1023 m 877 1023 l 1023 1023 l 1023 877 l 877 877 l 877 1023 m 0 877 l 146 877 l 146 731 l 0 731 l 0 877 m 146 877 l 292 877 l 292 731 l 146 731 l 146 877 m 439 877 l 585 877 l 585 731 l 439 731 l 439 877 m 877 877 l 1023 877 l 1023 731 l 877 731 l 877 877 m 0 731 l 146 731 l 146 585 l 0 585 l 0 731 m 146 731 l 292 731 l 292 585 l 146 585 l 146 731 m 439 731 l 585 731 l 585 585 l 439 585 l 439 731 m 877 731 l 1023 731 l 1023 585 l 877 585 l 877 731 m 0 585 l 146 585 l 146 439 l 0 439 l 0 585 m 146 585 l 292 585 l 292 439 l 146 439 l 146 585 m 439 585 l 585 585 l 585 439 l 439 439 l 439 585 m 877 585 l 1023 585 l 1023 439 l 877 439 l 877 585 m 146 439 l 292 439 l 292 292 l 146 292 l 146 439 m 292 439 l 439 439 l 439 292 l 292 292 l 292 439 m 585 439 l 731 439 l 731 292 l 585 292 l 585 439 m 731 439 l 877 439 l 877 292 l 731 292 l 731 439 z "},"x":{"ha":1170,"x_min":146,"x_max":1023,"o":"m 146 1023 l 292 1023 l 292 877 l 146 877 l 146 1023 m 292 1023 l 439 1023 l 439 877 l 292 877 l 292 1023 m 877 1023 l 1023 1023 l 1023 877 l 877 877 l 877 1023 m 292 877 l 439 877 l 439 731 l 292 731 l 292 877 m 439 877 l 585 877 l 585 731 l 439 731 l 439 877 m 731 877 l 877 877 l 877 731 l 731 731 l 731 877 m 439 731 l 585 731 l 585 585 l 439 585 l 439 731 m 585 731 l 731 731 l 731 585 l 585 585 l 585 731 m 292 585 l 439 585 l 439 439 l 292 439 l 292 585 m 585 585 l 731 585 l 731 439 l 585 439 l 585 585 m 731 585 l 877 585 l 877 439 l 731 439 l 731 585 m 146 439 l 292 439 l 292 292 l 146 292 l 146 439 m 731 439 l 877 439 l 877 292 l 731 292 l 731 439 m 877 439 l 1023 439 l 1023 292 l 877 292 l 877 439 z "},"y":{"ha":1023,"x_min":146,"x_max":877,"o":"m 146 1023 l 292 1023 l 292 877 l 146 877 l 146 1023 m 292 1023 l 439 1023 l 439 877 l 292 877 l 292 1023 m 731 1023 l 877 1023 l 877 877 l 731 877 l 731 1023 m 146 877 l 292 877 l 292 731 l 146 731 l 146 877 m 292 877 l 439 877 l 439 731 l 292 731 l 292 877 m 731 877 l 877 877 l 877 731 l 731 731 l 731 877 m 292 731 l 439 731 l 439 585 l 292 585 l 292 731 m 439 731 l 585 731 l 585 585 l 439 585 l 439 731 m 585 731 l 731 731 l 731 585 l 585 585 l 585 731 m 731 731 l 877 731 l 877 585 l 731 585 l 731 731 m 731 585 l 877 585 l 877 439 l 731 439 l 731 585 m 146 439 l 292 439 l 292 292 l 146 292 l 146 439 m 292 439 l 439 439 l 439 292 l 292 292 l 292 439 m 731 439 l 877 439 l 877 292 l 731 292 l 731 439 m 292 292 l 439 292 l 439 146 l 292 146 l 292 292 m 439 292 l 585 292 l 585 146 l 439 146 l 439 292 m 585 292 l 731 292 l 731 146 l 585 146 l 585 292 z "},"z":{"ha":1023,"x_min":146,"x_max":877,"o":"m 146 1023 l 292 1023 l 292 877 l 146 877 l 146 1023 m 292 1023 l 439 1023 l 439 877 l 292 877 l 292 1023 m 439 1023 l 585 1023 l 585 877 l 439 877 l 439 1023 m 585 1023 l 731 1023 l 731 877 l 585 877 l 585 1023 m 731 1023 l 877 1023 l 877 877 l 731 877 l 731 1023 m 585 877 l 731 877 l 731 731 l 585 731 l 585 877 m 731 877 l 877 877 l 877 731 l 731 731 l 731 877 m 439 731 l 585 731 l 585 585 l 439 585 l 439 731 m 585 731 l 731 731 l 731 585 l 585 585 l 585 731 m 292 585 l 439 585 l 439 439 l 292 439 l 292 585 m 439 585 l 585 585 l 585 439 l 439 439 l 439 585 m 146 439 l 292 439 l 292 292 l 146 292 l 146 439 m 292 439 l 439 439 l 439 292 l 292 292 l 292 439 m 439 439 l 585 439 l 585 292 l 439 292 l 439 439 m 585 439 l 731 439 l 731 292 l 585 292 l 585 439 m 731 439 l 877 439 l 877 292 l 731 292 l 731 439 z "},"{":{"ha":877,"x_min":292,"x_max":731,"o":"m 585 1316 l 731 1316 l 731 1170 l 585 1170 l 585 1316 m 439 1170 l 585 1170 l 585 1023 l 439 1023 l 439 1170 m 439 1023 l 585 1023 l 585 877 l 439 877 l 439 1023 m 292 877 l 439 877 l 439 731 l 292 731 l 292 877 m 439 877 l 585 877 l 585 731 l 439 731 l 439 877 m 439 731 l 585 731 l 585 585 l 439 585 l 439 731 m 439 585 l 585 585 l 585 439 l 439 439 l 439 585 m 585 439 l 731 439 l 731 292 l 585 292 l 585 439 z "},"}":{"ha":877,"x_min":292,"x_max":731,"o":"m 292 1316 l 439 1316 l 439 1170 l 292 1170 l 292 1316 m 439 1170 l 585 1170 l 585 1023 l 439 1023 l 439 1170 m 439 1023 l 585 1023 l 585 877 l 439 877 l 439 1023 m 439 877 l 585 877 l 585 731 l 439 731 l 439 877 m 585 877 l 731 877 l 731 731 l 585 731 l 585 877 m 439 731 l 585 731 l 585 585 l 439 585 l 439 731 m 439 585 l 585 585 l 585 439 l 439 439 l 439 585 m 292 439 l 439 439 l 439 292 l 292 292 l 292 439 z "},"~":{"ha":1170,"x_min":0,"x_max":1023,"o":"m 146 1023 l 292 1023 l 292 877 l 146 877 l 146 1023 m 292 1023 l 439 1023 l 439 877 l 292 877 l 292 1023 m 0 877 l 146 877 l 146 731 l 0 731 l 0 877 m 439 877 l 585 877 l 585 731 l 439 731 l 439 877 m 877 877 l 1023 877 l 1023 731 l 877 731 l 877 877 m 585 731 l 731 731 l 731 585 l 585 585 l 585 731 m 731 731 l 877 731 l 877 585 l 731 585 l 731 731 z "},"":{"ha":1023,"x_min":146,"x_max":877,"o":"m 146 1316 l 292 1316 l 292 1170 l 146 1170 l 146 1316 m 731 1316 l 877 1316 l 877 1170 l 731 1170 l 731 1316 m 292 1170 l 439 1170 l 439 1023 l 292 1023 l 292 1170 m 585 1170 l 731 1170 l 731 1023 l 585 1023 l 585 1170 m 146 1023 l 292 1023 l 292 877 l 146 877 l 146 1023 m 292 1023 l 439 1023 l 439 877 l 292 877 l 292 1023 m 439 1023 l 585 1023 l 585 877 l 439 877 l 439 1023 m 585 1023 l 731 1023 l 731 877 l 585 877 l 585 1023 m 731 1023 l 877 1023 l 877 877 l 731 877 l 731 1023 m 439 877 l 585 877 l 585 731 l 439 731 l 439 877 m 146 731 l 292 731 l 292 585 l 146 585 l 146 731 m 292 731 l 439 731 l 439 585 l 292 585 l 292 731 m 439 731 l 585 731 l 585 585 l 439 585 l 439 731 m 585 731 l 731 731 l 731 585 l 585 585 l 585 731 m 731 731 l 877 731 l 877 585 l 731 585 l 731 731 m 439 585 l 585 585 l 585 439 l 439 439 l 439 585 m 439 439 l 585 439 l 585 292 l 439 292 l 439 439 z "},"":{"ha":731,"x_min":439,"x_max":585,"o":"m 439 1316 l 585 1316 l 585 1170 l 439 1170 l 439 1316 m 439 1170 l 585 1170 l 585 1023 l 439 1023 l 439 1170 m 439 1023 l 585 1023 l 585 877 l 439 877 l 439 1023 m 439 731 l 585 731 l 585 585 l 439 585 l 439 731 m 439 585 l 585 585 l 585 439 l 439 439 l 439 585 m 439 439 l 585 439 l 585 292 l 439 292 l 439 439 z "},"":{"ha":1023,"x_min":146,"x_max":877,"o":"m 146 1170 l 292 1170 l 292 1023 l 146 1023 l 146 1170 m 731 1170 l 877 1170 l 877 1023 l 731 1023 l 731 1170 m 292 1023 l 439 1023 l 439 877 l 292 877 l 292 1023 m 585 1023 l 731 1023 l 731 877 l 585 877 l 585 1023 m 439 877 l 585 877 l 585 731 l 439 731 l 439 877 m 292 731 l 439 731 l 439 585 l 292 585 l 292 731 m 585 731 l 731 731 l 731 585 l 585 585 l 585 731 m 146 585 l 292 585 l 292 439 l 146 439 l 146 585 m 731 585 l 877 585 l 877 439 l 731 439 l 731 585 z "},"":{"ha":1023,"x_min":146,"x_max":877,"o":"m 439 1170 l 585 1170 l 585 1023 l 439 1023 l 439 1170 m 146 877 l 292 877 l 292 731 l 146 731 l 146 877 m 292 877 l 439 877 l 439 731 l 292 731 l 292 877 m 439 877 l 585 877 l 585 731 l 439 731 l 439 877 m 585 877 l 731 877 l 731 731 l 585 731 l 585 877 m 731 877 l 877 877 l 877 731 l 731 731 l 731 877 m 439 585 l 585 585 l 585 439 l 439 439 l 439 585 z "},"":{"ha":1170,"x_min":0,"x_max":1023,"o":"m 146 1170 l 292 1170 l 292 1023 l 146 1023 l 146 1170 m 292 1170 l 439 1170 l 439 1023 l 292 1023 l 292 1170 m 585 1170 l 731 1170 l 731 1023 l 585 1023 l 585 1170 m 731 1170 l 877 1170 l 877 1023 l 731 1023 l 731 1170 m 0 1023 l 146 1023 l 146 877 l 0 877 l 0 1023 m 439 1023 l 585 1023 l 585 877 l 439 877 l 439 1023 m 585 1023 l 731 1023 l 731 877 l 585 877 l 585 1023 m 877 1023 l 1023 1023 l 1023 877 l 877 877 l 877 1023 m 0 877 l 146 877 l 146 731 l 0 731 l 0 877 m 439 877 l 585 877 l 585 731 l 439 731 l 439 877 m 877 877 l 1023 877 l 1023 731 l 877 731 l 877 877 m 0 731 l 146 731 l 146 585 l 0 585 l 0 731 m 292 731 l 439 731 l 439 585 l 292 585 l 292 731 m 439 731 l 585 731 l 585 585 l 439 585 l 439 731 m 877 731 l 1023 731 l 1023 585 l 877 585 l 877 731 m 146 585 l 292 585 l 292 439 l 146 439 l 146 585 m 292 585 l 439 585 l 439 439 l 292 439 l 292 585 m 585 585 l 731 585 l 731 439 l 585 439 l 585 585 m 731 585 l 877 585 l 877 439 l 731 439 l 731 585 z "}}}
